<svg width="533.66406" height="376.65619" xmlns="http://www.w3.org/2000/svg">
 <metadata id="metadata7">image/svg+xmlOlifant20 09 2005moolifantelefantelephantoliphantslontrumpetsilhouetsilhouettetailfeetafricaafrikaanimalprofileearsbigjungleindiaindianafricanafrikancircusgrayjumbonose</metadata>
 <g>
  <title>Layer 1</title>
  <g id="layer1">
   <path fill="#333" id="path1368" d="m264.641876,372.469727c4.912506,-0.399719 14.357513,-1.742676 17.511292,-2.489899c3.842529,-0.91037 6.801086,-2.145416 7.118866,-2.971802c0.230194,-0.598083 -1.223969,-3.058563 -5.995483,-10.144684c-2.576416,-3.826324 -3.457428,-5.526123 -4.432007,-8.551636c-3.016663,-9.364349 -5.076477,-19.361023 -7.58606,-36.816376c-1.738708,-12.093933 -3.059784,-20.014374 -4.343842,-26.04361c-0.890778,-4.182495 -0.972961,-5.26712 -0.795563,-10.495209c0.128357,-3.781311 0.562164,-7.879974 1.234497,-11.661285c2.561646,-14.407227 2.867065,-19.0466 1.996643,-30.319412c-0.34668,-4.489609 -0.717804,-8.60022 -0.824829,-9.13472c-0.106964,-0.534485 -0.62561,-4.295242 -1.152466,-8.357269c-0.526917,-4.062012 -1.077362,-8.068176 -1.223267,-8.902542l-0.265289,-1.516968l1.68634,0.268967c0.927521,0.147949 3.770294,0.054749 6.3172,-0.207077c3.714447,-0.381866 5.224152,-0.37764 7.628632,0.021515c6.766968,1.123383 16.064178,3.95488 32.027069,9.753845c12.116058,4.40152 22.990692,7.976105 29.224152,9.606384c7.233002,1.891678 13.308929,2.123505 23.204346,0.885529c7.919312,-0.990799 11.665955,-0.90271 15.002014,0.352676c2.686798,1.011078 4.133087,2.47612 6.370697,6.453156c4.562531,8.10939 4.610107,8.150009 11.145691,9.522491c6.139648,1.289383 6.973114,1.87558 9.111145,6.407852c1.782501,3.778503 2.069855,4.596054 2.939819,8.363144c1.382904,5.987579 1.694336,10.730042 1.478699,22.511719c-0.366119,19.996887 -3.077545,33.487061 -10.515106,52.315002c-3.855774,9.760773 -3.616943,9.408508 -11.01532,16.246521c-3.08255,2.84903 -6.805664,8.255157 -7.077454,10.276794c-0.384949,2.863037 2.854889,7.01004 6.886597,8.814972c4.766144,2.133759 9.626007,2.107269 26.336487,-0.143524c4.730072,-0.637146 11.480927,-1.437683 15.001678,-1.778992c3.520844,-0.341248 6.990143,-0.707977 7.709595,-0.814911l1.308075,-0.194336l-0.228485,-2.01532c-0.678375,-5.982025 -1.104767,-15.43399 -0.897064,-19.884918c0.290436,-6.223816 1.253479,-10.907959 3.956116,-19.243011c3.066833,-9.458435 4.340515,-14.059357 5.275116,-19.056091c0.45993,-2.458588 1.248444,-5.869476 1.75238,-7.579803c2.489319,-8.44928 3.558929,-11.661316 3.88327,-11.661316c0.610901,0 3.598938,6.003021 5.514313,11.078217c2.734711,7.246277 4.61615,12.035156 5.497955,13.993591c6.713837,14.911957 10.604187,26.623657 11.235779,33.824707c0.220886,2.518921 0.115509,3.366577 -0.763458,6.142212c-1.377106,4.348724 -1.339172,5.589569 0.215973,7.072113c1.949097,1.858154 4.735504,2.47525 9.851837,2.181702c10.936707,-0.62738 15.09256,-0.982513 18.526337,-1.583252c4.669434,-0.816956 16.454163,-3.666016 16.881958,-4.081421c0.337036,-0.32724 -1.367615,-3.933838 -4.302368,-9.103241c-1.897644,-3.342316 -12.032715,-23.442719 -14.334045,-28.427826c-4.933075,-10.685913 -10.17627,-23.769897 -13.311523,-33.217896c-3.654144,-11.011871 -7.930084,-27.472595 -9.09198,-35.000778c-0.247467,-1.603439 -0.601837,-3.61499 -0.787506,-4.470154c-0.293152,-1.350098 -1.36145,-10.199722 -2.745026,-22.739578c-0.22406,-2.031006 -0.748505,-5.839294 -1.165375,-8.462891c-1.304108,-8.207397 -0.865845,-12.446777 1.902252,-18.400696c0.656982,-1.413055 1.388794,-3.77446 1.626282,-5.247589c0.885254,-5.491135 2.07782,-9.869522 2.688293,-9.869522c0.134552,0 0.678192,-0.699707 1.207977,-1.55484c0.878174,-1.41748 1.558655,-1.976761 1.558655,-1.281143c0,0.150558 0.434418,3.430313 0.965332,7.288345c0.921326,6.694427 2.328522,18.565399 4.102997,34.613022c1.220734,11.039886 3.457733,29.274612 3.86261,31.48558c0.19574,1.068924 0.561981,3.342896 0.813965,5.053223c1.695526,11.508804 3.340698,17.994492 6.981628,27.5233c3.098877,8.110443 4.135651,11.125519 4.886017,14.210358l0.532898,2.190613l0.026306,-4.470154c0.067657,-11.50058 -1.671112,-22.597015 -5.546173,-35.394867c-3.756775,-12.407135 -5.685364,-25.842133 -7.445892,-51.870636c-1.18689,-17.546783 -1.653595,-27.53157 -2.162384,-46.256561c-0.535339,-19.702209 -1.408173,-27.022873 -4.912781,-41.203316c-1.894104,-7.663788 -2.700287,-10.41246 -5.130463,-17.491959c-12.228241,-35.623199 -32.533142,-59.264778 -60.098267,-69.974142c-12.920288,-5.019707 -26.324341,-7.119999 -42.667236,-6.685644c-13.311768,0.353819 -21.47348,1.508179 -41.888,5.92449c-14.621307,3.163073 -19.198975,3.560236 -33.899994,2.941103c-27.258179,-1.147974 -45.730591,-5.110207 -62.095749,-13.319183c-7.575638,-3.80005 -9.38562,-4.476858 -16.419815,-6.139983c-8.138138,-1.9241 -20.840103,-3.059148 -26.69136,-2.385124c-8.072159,0.929873 -27.136963,8.067161 -35.829788,13.413638c-2.791321,1.716784 -6.212418,3.049564 -8.980591,3.498571c-0.750076,0.121681 -5.47287,0.489628 -10.494965,0.817657c-10.380753,0.678068 -11.962936,0.977612 -19.205826,3.636312c-14.642433,5.374962 -21.87381,10.000759 -31.682159,20.266563c-6.400269,6.698803 -14.402824,17.872997 -20.377937,28.45438c-2.510864,4.44635 -8.249546,15.575829 -8.249546,15.998779c0,0.093285 -0.774174,1.805351 -1.720322,3.804619c-3.227448,6.819664 -6.856972,15.775848 -12.106461,29.873032c-1.870789,5.024078 -3.79726,10.184219 -4.280945,11.466934c-0.483803,1.282761 -1.642693,4.417908 -2.575439,6.966995c-2.026905,5.539429 -2.720184,6.642273 -5.192078,8.260025c-3.094791,2.025452 -7.979513,3.14151 -18.350697,4.192825c-8.276455,0.838989 -11.105145,1.369934 -11.105145,2.084518c0,1.233551 1.982061,3.901947 3.596272,4.841492c2.406878,1.400894 4.787351,2.119019 9.952653,3.002533c7.539013,1.289459 9.125835,1.612305 11.876152,2.416046c1.446541,0.422745 2.630127,0.882767 2.630184,1.022293c0,0.139542 -1.215233,6.463333 -2.700645,14.052887c-3.717607,18.995758 -5.882936,31.20903 -9.200058,51.892853c-4.670671,29.123734 -7.866708,66.190659 -8.96555,103.980026c-0.249938,8.595306 -0.868347,14.105316 -1.915443,17.065826c-0.328734,0.929535 -0.597728,1.727783 -0.597728,1.773926c0,0.046173 0.745216,0.097992 1.656049,0.115173c0.910832,0.017242 3.643273,0.744568 6.072066,1.616425c4.203905,1.509003 6.262964,1.873047 7.631447,1.349243c0.80201,-0.307098 0.799175,-2.21167 -0.008951,-5.983429c-1.083746,-5.057983 -0.462336,-14.46579 2.195185,-33.234772c2.028782,-14.328796 6.933907,-37.022614 11.162983,-51.645752c0.750408,-2.594513 1.506847,-5.242035 1.680992,-5.883362c1.084499,-3.992981 9.19458,-33.950928 10.365231,-38.28801c9.010918,-33.385178 15.924484,-50.724823 25.495049,-63.942871c5.02034,-6.933609 8.363251,-9.053268 18.699577,-11.856918c5.172981,-1.403152 7.824745,-2.428497 15.581459,-6.02475c8.565125,-3.971024 12.2892,-5.321884 15.284042,-5.544006c2.597488,-0.192657 2.623978,-0.184631 3.058411,0.926147c0.33696,0.861481 0.294205,2.153748 -0.185318,5.590637c-0.748718,5.367371 -0.794662,8.563705 -0.135544,9.437485c0.771698,1.023087 13.414215,3.413513 19.399673,3.668106c4.078934,0.173492 5.718338,0.056183 9.936188,-0.711044c6.916214,-1.258011 18.721085,-1.348343 21.912064,-0.167633c2.839539,1.050674 4.534592,2.566101 5.759537,5.149124c1.445908,3.049011 2.024185,6.759857 2.532074,16.247421c0.60585,11.317596 0.177444,13.793488 -5.308228,30.679932c-1.810745,5.574066 -4.00209,13.020844 -4.86969,16.54837c-3.461945,14.076584 -5.235031,18.314087 -18.541763,44.312973c-6.233231,12.17868 -8.641525,17.594208 -11.062973,24.877502c-2.660904,8.003418 -3.515808,12.570984 -3.74704,20.018585c-0.114029,3.675323 -0.412628,6.903351 -0.729843,7.891449c-0.774124,2.411072 -2.50676,4.392792 -6.759155,7.730988c-4.911697,3.855835 -8.732941,7.596832 -14.941383,14.627625l-5.087379,5.761322l1.906044,1.956116c2.503006,2.568542 7.641457,6.834442 10.088951,8.37561c7.793091,4.907166 14.347565,5.980835 27.774033,4.5495c3.154984,-0.336304 8.313705,-0.735535 11.463852,-0.887115c3.150131,-0.15155 5.822693,-0.370605 5.939102,-0.486725c0.11644,-0.116119 0.386536,-3.10498 0.600403,-6.641937c0.880707,-14.571228 3.074936,-24.917358 7.81543,-36.851807c2.632309,-6.627045 4.174988,-9.639954 7.713531,-15.064911c3.34314,-5.125458 6.017654,-9.769623 9.232529,-16.031921c2.943085,-5.732849 7.009216,-12.270142 10.759079,-17.297638c2.553146,-3.423126 5.619705,-6.724762 5.933533,-6.388428c0.086761,0.092957 1.304901,3.230164 2.706924,6.971527c2.505951,6.687134 3.548737,9.749573 9.265274,27.209717c2.377136,7.260559 3.58345,10.198364 7.10257,17.297577c6.304291,12.717743 8.031464,17.670227 7.295303,20.918732c-0.346344,1.52829 -2.026855,4.25058 -3.121628,5.056824c-0.651917,0.480103 -8.2108,9.687897 -9.673096,11.783264c-0.766998,1.098938 -3.198151,7.336365 -3.198151,8.204987c0,0.340454 2.046646,0.719086 10.325882,1.910522c3.77359,0.542999 21.192001,0.997833 25.327591,0.661377z"/>
  </g>
 </g>
</svg>