<?xml version="1.0" encoding="UTF-8" standalone="no"?>
<svg
   xmlns:dc="http://purl.org/dc/elements/1.1/"
   xmlns:cc="http://creativecommons.org/ns#"
   xmlns:rdf="http://www.w3.org/1999/02/22-rdf-syntax-ns#"
   xmlns:svg="http://www.w3.org/2000/svg"
   xmlns="http://www.w3.org/2000/svg"
   xmlns:sodipodi="http://sodipodi.sourceforge.net/DTD/sodipodi-0.dtd"
   xmlns:inkscape="http://www.inkscape.org/namespaces/inkscape"
   width="590"
   height="590"
   id="svg1"
   sodipodi:version="0.32"
   inkscape:version="0.45.1+0.46pre1"
   sodipodi:docname="contour_giraffe.svg"
   sodipodi:docbase="/var/www/html/svg_gallery/svg/animals"
   inkscape:output_extension="org.inkscape.output.svg.inkscape"
   version="1.0">
  <metadata
     id="metadata82" />
  <defs
     id="defs2481">
    <inkscape:perspective
       sodipodi:type="inkscape:persp3d"
       inkscape:vp_x="-50 : 600 : 1"
       inkscape:vp_y="0 : 1000 : 0"
       inkscape:vp_z="700 : 600 : 1"
       inkscape:persp3d-origin="300 : 400 : 1"
       id="perspective2424" />
  </defs>
  <sodipodi:namedview
     id="base"
     pagecolor="#ffffff"
     bordercolor="#666666"
     borderopacity="1.0"
     inkscape:pageopacity="0.0"
     inkscape:pageshadow="2"
     inkscape:zoom="0.85932203"
     inkscape:cx="149.5"
     inkscape:cy="295"
     inkscape:window-width="882"
     inkscape:window-height="730"
     inkscape:window-x="55"
     inkscape:window-y="48"
     inkscape:current-layer="svg1"
     showgrid="false" />
  <path
     style="fill:#333;stroke:none"
     d="M 206.59246,35.942127 C 206.80906,44.474227 213.09026,49.293727 217.48826,55.942127 C 222.80156,63.974027 226.34746,74.234727 226.53846,83.942127 C 226.94646,104.67713 217.05786,124.88613 210.69736,143.94213 C 209.21246,148.39113 210.63176,152.49813 209.90806,156.94213 C 208.17486,167.58413 204.43166,176.99413 203.68196,187.94213 C 201.88316,214.21013 211.50196,240.01913 210.54846,265.94213 C 210.03276,279.96413 197.06956,289.29013 199.82006,304.94213 C 201.90066,316.78213 216.16486,325.87313 216.59246,336.94213 C 229.82796,353.09313 219.67236,373.46513 219.67116,391.94213 C 219.67046,403.58613 220.93406,415.29513 220.21356,426.94213 C 219.77316,434.06213 216.50996,440.97213 215.10636,447.94213 C 213.01286,458.33713 212.68996,469.48813 210.85556,479.94213 C 209.85216,485.66013 212.02896,491.27213 211.28846,496.94213 C 210.13886,505.74513 205.82956,511.79513 203.37796,519.94213 C 201.12696,527.42213 201.17876,535.53313 199.02066,542.94213 C 197.48626,548.21013 192.00446,554.59613 187.54926,557.69913 C 183.71106,560.37213 176.96446,563.20013 177.37026,568.92713 C 177.92466,576.75213 187.87856,573.42013 192.59246,572.78313 C 203.97956,571.24313 210.60806,555.25313 215.79616,545.94213 C 221.73596,535.28213 219.98976,526.48713 221.71056,514.94213 C 222.77956,507.76913 227.00016,501.26813 228.15346,493.94213 C 229.12516,487.76913 227.40996,481.01613 228.90646,474.98113 C 229.75476,471.56113 232.74096,469.19513 234.02996,465.92713 C 237.37336,457.45113 240.19626,446.03013 240.59246,436.94213 L 241.59246,436.94213 C 242.59066,456.73913 247.60426,474.68013 250.81466,493.94213 C 252.60646,504.69213 251.49166,516.05213 251.59246,526.94213 C 251.63746,531.79813 253.50146,536.28813 251.31466,540.94213 C 249.34816,545.12713 247.04376,552.26913 244.09246,555.69213 C 241.14806,559.10713 234.98176,558.58013 233.92576,563.91413 C 233.20936,567.53313 237.63276,569.74713 240.59246,570.22013 C 246.62346,571.18313 259.88446,571.38613 261.67546,563.94213 C 262.44046,560.76313 259.60946,559.34013 259.64846,556.55313 C 259.72646,550.87513 266.81746,545.30013 267.50946,538.94213 C 269.78346,518.03513 262.78046,496.60413 260.67546,475.94213 C 259.36746,463.09313 263.25846,450.43513 262.56446,437.94213 C 262.00146,427.80513 260.20446,417.61813 259.42546,407.55313 C 259.20846,404.74113 260.79846,397.85513 257.59246,397.94213 L 258.59246,373.94213 C 272.39546,376.61913 284.52146,378.00913 298.59246,377.94113 C 302.38546,377.92313 310.87746,375.03213 313.86446,377.63513 C 318.54046,381.70913 316.76546,390.83213 320.39246,395.85213 C 329.21746,408.06813 332.79146,419.38313 338.90446,432.94213 C 341.77046,439.29913 347.15546,446.04813 348.36446,452.94213 C 352.89246,478.75213 341.01046,505.28813 328.67446,526.94213 C 322.51646,537.75013 321.82946,550.42213 309.59246,556.94213 C 307.44746,564.59313 289.28346,567.87913 292.21546,575.83413 C 294.35546,581.64013 301.36246,579.25413 305.59246,577.96713 C 316.16446,574.75013 329.72146,568.84713 334.62246,557.94213 C 336.61946,553.50013 336.48446,548.47713 338.19046,543.94213 C 343.24946,530.49113 349.73146,517.73313 356.14846,504.94213 C 362.85046,491.58313 373.39546,480.48913 375.30646,464.94213 C 376.86046,452.29313 368.59246,443.32613 368.59246,430.94213 L 369.59246,430.94213 C 374.14046,440.69413 382.20546,447.08313 385.74346,457.94213 C 388.58746,466.67013 386.24846,475.10213 386.63146,483.94213 C 387.53746,504.81913 391.91846,534.71913 378.89346,552.89913 C 374.52946,558.98913 366.47946,559.93113 360.59246,563.94213 L 360.59246,564.94213 C 373.19446,581.87513 402.96846,563.72313 401.48246,544.94213 C 398.86946,511.89813 409.07646,477.96213 405.41846,443.94213 C 404.33146,433.83113 396.58146,432.51813 393.19546,424.73313 C 385.16046,406.26313 387.55146,389.43013 390.38446,369.94213 C 391.65846,361.17713 390.05646,352.41713 395.59246,344.94213 C 398.39046,365.70713 400.89146,387.12313 403.89246,407.94213 C 405.97046,422.35813 410.19546,437.30813 410.57746,451.94213 C 410.80746,460.75513 412.36146,468.31213 413.87846,476.94213 C 414.42646,480.05513 415.55846,485.08613 419.59346,485.19013 C 426.56846,485.37113 425.14946,475.02613 424.76246,470.94213 C 423.75346,460.29913 429.07246,430.94413 415.59246,426.94213 C 415.58746,418.81713 412.24146,411.91313 411.68246,403.94213 C 409.71746,375.94413 410.14746,338.09213 388.07746,317.07313 C 376.32646,305.88113 359.98446,296.73013 345.59246,289.20413 C 339.04046,285.77813 330.03746,283.87813 324.59246,278.94213 C 322.13846,279.43313 317.87246,278.82113 318.59246,275.94213 C 313.42646,274.55213 309.43046,268.60813 305.59246,265.03213 C 289.16046,249.72013 284.09246,228.13013 274.00946,209.02113 C 270.91146,203.14813 263.08846,202.36713 260.45046,195.93813 C 257.86846,189.64713 260.29346,181.59213 259.12846,174.94213 C 257.61546,166.29713 257.47146,157.66613 256.42246,148.94213 C 256.07846,146.07713 254.15846,142.45313 255.59246,139.94213 C 249.87196,125.28413 258.43646,101.34813 259.50246,85.942127 C 259.93146,79.751127 259.28346,71.934527 264.92146,67.684427 C 272.52746,61.951427 296.91346,72.370427 299.21546,58.930527 C 300.64946,50.566027 279.88046,51.264627 276.59246,41.942127 C 282.38246,41.408927 291.41146,31.345727 283.44446,26.988427 C 276.16346,23.006527 268.78046,36.269427 260.59746,34.253127 C 254.97746,32.868527 252.82346,27.176227 247.59166,25.089427 C 238.75416,21.564727 228.56906,23.837527 219.59246,20.837227 C 210.67456,17.856527 203.01476,10.145227 193.59246,9.130427 C 186.72286,8.390527 176.85016,15.242627 182.19666,22.757727 C 187.08886,29.634227 198.63206,34.241127 206.59246,35.942127 z"
     id="path26" />
  <metadata
     id="metadata84">
    <rdf:RDF>
      <cc:Work
         rdf:about="">
        <dc:title>Clipart by Nicu Buculei - contour_chipmunk</dc:title>
        <dc:rights>
          <cc:Agent>
            <dc:title>Nicu Buculei</dc:title>
          </cc:Agent>
        </dc:rights>
        <dc:type
           rdf:resource="http://purl.org/dc/dcmitype/StillImage" />
        <cc:license
           rdf:resource="http://web.resource.org/cc/PublicDomain" />
        <dc:format>image/svg+xml</dc:format>
      </cc:Work>
      <cc:License
         rdf:about="http://web.resource.org/cc/PublicDomain">
        <cc:permits
           rdf:resource="http://web.resource.org/cc/Reproduction" />
        <cc:permits
           rdf:resource="http://web.resource.org/cc/Distribution" />
        <cc:permits
           rdf:resource="http://web.resource.org/cc/DerivativeWorks" />
      </cc:License>
    </rdf:RDF>
  </metadata>
</svg>
