<svg width="391.11429" height="376.82855" xmlns="http://www.w3.org/2000/svg">
 <metadata id="metadata7">image/svg+xml</metadata>
 <g>
  <title>Layer 1</title>
  <g id="layer1">
   <path fill="#333" stroke="#000000" stroke-width="1.37369943px" id="path2831-1" d="m131.495758,37.081451c2.548615,-0.495453 7.949402,9.272461 7.949402,9.272461c0,0 5.504745,22.880707 9.073669,22.880707c3.568985,0 5.510223,-5.538818 4.536835,-9.701752c-0.973328,-4.162964 -6.138489,-8.667999 -2.569504,-9.014923c3.568985,-0.346893 6.822067,7.283844 7.146469,8.671478c0.944336,4.038666 -5.211792,21.493042 -1.96727,22.880676c3.244522,1.387634 7.793167,-1.010468 11.362152,-7.254822c3.568924,-6.244446 7.146469,-10.407135 7.146469,-12.835541c0,-2.428345 -1.297806,-3.137238 0,-2.790314c1.297791,0.346924 2.572815,2.447998 2.248352,6.610931c-0.324463,4.162933 -5.199814,11.7854 -8.119858,16.295227c-2.920059,4.509857 -9.709534,5.550385 -9.385071,14.570068c0.324463,9.019714 6.794952,21.141357 5.821625,31.895599c-1.403625,15.50769 -11.683365,23.267029 -11.683365,23.267029l6.182953,-1.073181l0.321152,2.790314c0,0 -4.865524,1.749573 -8.110031,2.790314c-3.244522,1.040741 -5.179199,1.030273 -5.179199,1.030273l-4.536835,1.030273c0,0 4.844971,1.030273 6.142761,1.030273c1.297806,0 -1.605927,1.760101 -1.605927,1.760101l-11.683304,-1.030304l-8.752457,3.820587l0.321152,10.732056l12.646866,1.373657c0,0 11.359924,4.184998 15.577774,2.103516c4.217911,-2.081482 19.782394,-12.159119 28.867081,-11.118408c9.084625,1.040771 16.542313,1.409668 20.43576,2.103516c3.893387,0.693787 37.005188,-2.106995 42.196411,-1.760071c5.191223,0.346924 10.352936,0.343445 14.895203,0.343445c4.542328,0 15.910797,-3.788147 22.724274,-2.747437c6.813477,1.040771 20.43576,5.194336 20.43576,5.194336c0,0 8.12085,-3.834595 11.040955,-2.446899c2.920044,1.387634 6.504059,5.237183 6.504059,5.237183l2.890747,2.747437l0.321228,1.76001l-6.865479,-0.987305c1.023834,0.246155 2.902954,1.049683 1.686249,3.391296c-1.622253,3.122192 -3.573242,5.580688 -3.573242,5.580688c0,0 2.937378,-0.363281 2.288483,5.881104c-0.648926,6.244446 -4.212372,17.361511 -4.536835,19.789856c-0.324463,2.428406 -3.586304,11.788879 -2.288483,17.686401c1.297791,5.897522 19.15097,27.044739 19.15097,27.044739l1.927185,29.835022l4.536804,30.865295l-0.321167,3.477173l0.051331,5.990906l-14.946533,4.191467c0,0 -2.274414,-2.552734 0.321198,-5.674927c2.595581,-3.122192 3.252014,-4.850891 3.252014,-4.850891l-0.682495,-29.835022c0,0 0.329926,-14.228821 -4.536835,-20.820129c-4.86676,-6.591309 -6.463959,-7.984619 -6.463959,-7.984619l-17.223846,-15.582886l-0.321167,0.686829l8.752411,12.492065c0,0 3.579773,1.031372 2.930878,5.194336c-0.648926,4.162903 -11.663727,12.493164 -13.610474,16.656067c-1.946686,4.162964 -18.829803,25.671021 -18.829803,25.671021l0.321198,6.567993l-4.858032,5.237244l-0.642334,3.434265l-1.967346,3.820618l-10.03717,-0.343445c0,0 -0.334229,-1.012878 0.963562,-2.747375c1.297791,-1.734558 2.930847,-2.790344 2.930847,-2.790344l0.642426,-6.610962l1.605927,-2.403931l0.321198,-5.53772l23.687805,-30.908264c0,0 2.288483,-0.674011 2.288483,-6.224548c0,-5.550598 -3.573242,-7.98468 -3.573242,-7.98468l-13.971802,-15.969238c0,0 -12.974396,7.627258 -24.330231,9.014893c-11.355804,1.387634 -34.046188,-3.09082 -34.046188,-3.09082l-5.179199,-0.343384c0,0 3.874832,15.238159 5.821548,23.91095c1.946732,8.672729 3.573242,16.312622 3.573242,16.312622c0,0 9.084473,12.486206 12.004547,17.343018c2.920074,4.85675 7.788849,10.774902 7.788849,10.774902l-0.051331,4.14856l3.303345,7.380066l-13.713074,2.060547l2.350983,-8.051392l-2.646484,2.087952c0,0 -1.235931,-10.411255 -6.427139,-19.430969c-5.191223,-9.019653 -9.736618,-13.186951 -11.683334,-16.656067c-1.946716,-3.469116 -5.856201,-19.430115 -10.398575,-25.327576c-4.542313,-5.897522 -6.183929,-11.805237 -10.077316,-11.805237c-3.893448,0 -2.248352,7.984619 -2.248352,7.984619c0,0 -6.484528,30.533447 -8.431244,33.65564c-1.946732,3.122192 -2.609695,5.881165 -2.609695,5.881165c0,0 -3.25206,21.875854 -3.25206,23.610474c0,1.734558 2.350998,7.680542 2.350998,7.680542l-14.008667,3.173157l-0.346832,-8.449768c0,0 2.26564,0.002991 4.536835,-4.507446c2.271118,-4.509827 5.225891,-23.919006 4.57695,-27.388123c-0.648865,-3.469116 -1.007004,-6.25354 -0.682541,-7.641174c0.324463,-1.387695 3.586334,-22.534912 2.288483,-27.044739c-1.297791,-4.509888 -1.927139,-9.014893 -1.927139,-9.014893l-6.504105,-3.133789l-9.748627,-8.483215c0,0 -7.271835,-8.178955 -9.218552,-7.138245c-1.946716,1.040771 -14.295212,-8.299255 -15.593018,-8.299255l-11.84964,-4.695557l-3.87056,-1.200195l-3.59935,-1.048828c0,0 -8.399628,-5.233704 -15.537643,-5.580627c-7.137901,-0.346924 -14.614143,0.729736 -14.614143,0.729736c0,0 -2.590172,3.817139 -4.536835,4.164063c-1.946663,0.346924 -7.146469,-3.820618 -7.146469,-3.820618c0,0 -5.834686,-6.618958 -4.536888,-10.088074c1.297852,-3.469177 2.930901,-5.194336 2.930901,-5.194336l28.867012,-17.342957l3.252045,-2.790344l0.321274,-2.060547l-7.467796,-0.343384c0,0 -3.578453,-3.32489 -9.094154,-8.702026c-7.024597,-9.273743 -5.291199,-9.803406 -14.770905,-13.494232c-0.324516,-1.387634 -9.233788,-2.770477 -7.61158,-4.505035c1.622314,-1.734558 5.179192,-6.610931 5.179192,-6.610931l0.321152,-5.194305l3.252113,2.403961l0,3.133759l0.321213,2.790344l1.96727,1.030273c0,0 4.841713,-2.772888 6.463974,-4.507446c1.622261,-1.734589 2.609634,-3.133759 2.609634,-3.133759l3.252113,5.924072l2.248291,0l-2.569504,-6.267487c0,0 3.55043,5.201263 5.821556,4.507446c2.271133,-0.693848 -3.231445,-11.07547 -1.284775,-11.07547c1.946777,0 3.556992,6.224579 5.179253,6.224579c1.622253,0 1.96727,-9.358337 1.96727,-9.358337c0,0 -1.632019,-4.164001 0.963631,-4.164001c2.595528,0 4.218819,5.910126 3.894417,7.29776c-0.324463,1.387665 -0.33754,12.131226 1.284714,13.865784c1.62233,1.734558 15.256577,10.045166 15.256577,10.045166l5.821609,-3.477173c0,0 2.298248,-1.024384 1.32486,-5.881134c-0.973343,-4.85675 -7.816986,-18.739777 -13.008224,-24.984161c-5.191177,-6.244415 -19.137962,-25.31015 -20.435753,-27.044708c-1.297798,-1.734558 -5.180229,-8.679535 -6.802483,-11.454834c-1.386391,-2.371765 -3.578743,-9.021881 -1.307556,-9.021881c2.271179,0 3.894409,5.53772 3.894409,5.53772c0,0 2.914574,5.555176 4.536896,3.820618c1.622139,-1.734558 -1.284843,-5.194305 -1.284843,-5.194305c0,0 -4.536827,-7.645782 -4.536827,-11.461823c0,-3.81601 4.199348,-10.745941 5.821671,-9.358307c1.622139,1.387634 -1.284843,6.610931 -1.284843,6.610931c0,0 -0.334221,6.210632 0.963577,7.598267c1.297791,1.387665 2.951447,3.484131 4.89817,2.790314c1.946663,-0.693817 1.927139,-2.403961 1.927139,-2.403961l-0.642357,-19.789856c0,0 -1.950035,-4.164032 0.321152,-4.164032c2.271187,0 3.563499,6.916016 4.536827,10.732025c0.973389,3.81604 -0.949524,18.412659 1.646133,18.759583c2.595581,0.346924 6.1427,-4.164032 6.1427,-4.164032c0,0 12.001266,-17.337036 12.325775,-22.193817c0.186325,-2.789795 1.32486,3.820587 1.32486,3.820587c0,0 0.957062,-5.211731 1.605988,-3.477173c0.648926,1.734558 7.782379,7.623779 8.431244,9.358337c0.648941,1.734558 0.007538,3.827576 3.252121,3.133759c3.244461,-0.693817 1.927078,-8.671478 1.927078,-8.671478c0,0 -5.821548,-13.540894 -5.821548,-15.969269c0,-0.19989 0.311844,-0.224518 0.481781,-0.257568l0,0l0,0zm-8.913086,18.287384l-1.967285,6.954346c0,0 5.219391,2.435364 5.219391,-0.686859c0,-3.122192 -3.252106,-6.267487 -3.252106,-6.267487zm-4.857986,13.522339c0,0 -11.060471,10.42218 -9.1138,15.625854c1.946716,5.203674 2.609741,4.164032 2.609741,4.164032l20.435699,-11.805237c0,0 -4.537796,-4.490021 -8.431244,-6.224579c-3.893448,-1.734558 -5.500397,-1.760071 -5.500397,-1.760071zm21.07811,14.938995l-19.15097,9.701752c0,0 -5.500412,1.75415 -5.500412,6.610931c0,4.85675 0.308197,12.814575 1.605988,14.896057c1.297867,2.081451 11.352341,21.872406 12.325729,23.953888c0.973267,2.081451 2.616135,5.8927 1.96727,9.014893c-0.648926,3.122192 -0.003769,5.888123 0.321213,5.194305c0,0 9.07338,-2.850525 21.078125,-11.118378c6.494003,-4.472565 4.505203,-17.579376 4.215622,-19.746948l-9.073669,-24.640717l-4.857986,-11.118378l-2.930908,-2.747406zm-61.330055,57.571167l1.628769,7.980042l4.215622,0.686859l2.248352,2.790344l4.898117,5.53772c0,0 1.268517,1.749573 2.890717,2.790344c1.622261,1.04071 4.21563,1.373657 4.21563,1.373657l2.930832,0.343445l2.288544,-0.343445l2.930847,-1.373657l4.536835,-2.790344l-13.650635,-6.911438l-7.146408,-2.103485l-5.821671,-1.373688l-6.16555,-6.606354z"/>
  </g>
 </g>
</svg>