<?xml version="1.0" encoding="UTF-8" standalone="no"?>
<!-- Created with Inkscape (http://www.inkscape.org/) -->

<svg
   xmlns:dc="http://purl.org/dc/elements/1.1/"
   xmlns:cc="http://creativecommons.org/ns#"
   xmlns:rdf="http://www.w3.org/1999/02/22-rdf-syntax-ns#"
   xmlns:svg="http://www.w3.org/2000/svg"
   xmlns="http://www.w3.org/2000/svg"
   xmlns:sodipodi="http://sodipodi.sourceforge.net/DTD/sodipodi-0.dtd"
   xmlns:inkscape="http://www.inkscape.org/namespaces/inkscape"
   width="220"
   height="217.78799"
   id="svg6552"
   version="1.1"
   inkscape:version="0.48.4 r9939"
   sodipodi:docname="emblemHover.svg">
  <defs
     id="defs6554" />
  <sodipodi:namedview
     id="base"
     pagecolor="#f1f1e9"
     bordercolor="#666666"
     borderopacity="1.0"
     inkscape:pageopacity="0.0"
     inkscape:pageshadow="2"
     inkscape:zoom="1.979899"
     inkscape:cx="-58.341353"
     inkscape:cy="110.62704"
     inkscape:document-units="px"
     inkscape:current-layer="layer1"
     showgrid="false"
     fit-margin-top="0"
     fit-margin-left="0"
     fit-margin-right="0"
     fit-margin-bottom="0"
     inkscape:window-width="1920"
     inkscape:window-height="1018"
     inkscape:window-x="-8"
     inkscape:window-y="-8"
     inkscape:window-maximized="1" />
  <metadata
     id="metadata6557">
    <rdf:RDF>
      <cc:Work
         rdf:about="">
        <dc:format>image/svg+xml</dc:format>
        <dc:type
           rdf:resource="http://purl.org/dc/dcmitype/StillImage" />
      </cc:Work>
    </rdf:RDF>
  </metadata>
  <g
     inkscape:label="Layer 1"
     inkscape:groupmode="layer"
     id="layer1"
     transform="translate(-5.71429,-3.46818)">
    <polygon
       transform="translate(-660.28571,-115.63782)"
       points="776,330 760.347,336.894 747.252,325.894 730.292,328.083 720.852,313.822 703.963,311.133 698.909,294.795 683.451,287.479 683.192,270.38 670.429,258.997 675.025,242.524 666,228 675.025,213.476 670.429,197.002 683.192,185.62 683.452,168.521 698.91,161.204 703.964,144.866 720.853,142.178 730.292,127.917 747.253,130.105 760.347,119.106 776,126 791.653,119.106 804.748,130.106 821.708,127.917 831.148,142.178 848.037,144.867 853.091,161.205 868.549,168.521 868.808,185.62 881.571,197.003 876.975,213.476 886,228 876.975,242.524 881.57,258.998 868.808,270.38 868.548,287.479 853.09,294.796 848.036,311.134 831.147,313.822 821.708,328.083 804.747,325.895 791.653,336.894 "
       id="polygon5613"
       style="fill:#333" />
    <path
       style="fill:#7f1917;fill-opacity:1"
       inkscape:connector-curvature="0"
       d="m 115.71429,203.86218 c -50.453002,0 -91.500002,-41.047 -91.500002,-91.5 0,-50.453001 41.047,-91.500001 91.500002,-91.500001 50.453,0 91.5,41.047 91.5,91.500001 0,50.453 -41.047,91.5 -91.5,91.5 z m 0,-180.000001 c -48.799002,0 -88.500002,39.701 -88.500002,88.500001 0,48.799 39.701,88.5 88.500002,88.5 48.799,0 88.5,-39.701 88.5,-88.5 0,-48.799001 -39.701,-88.500001 -88.5,-88.500001 z"
       id="path5615" />
    <path
       style="fill:#7f1917;fill-opacity:1"
       inkscape:connector-curvature="0"
       d="m 115.71429,191.86218 c -43.837,0 -79.500002,-35.664 -79.500002,-79.5 0,-43.836001 35.663002,-79.500001 79.500002,-79.500001 43.837,0 79.5,35.664 79.5,79.500001 0,43.836 -35.663,79.5 -79.5,79.5 z m 0,-156.000001 c -42.183,0 -76.500002,34.318 -76.500002,76.500001 0,42.182 34.317002,76.5 76.500002,76.5 42.183,0 76.5,-34.318 76.5,-76.5 0,-42.182001 -34.317,-76.500001 -76.5,-76.500001 z"
       id="path5617" />
    <path
       style="fill:#efefe3;fill-opacity:1"
       inkscape:connector-curvature="0"
       d="m 115.76229,196.86218 c -0.837,-0.002 -1.678,-0.012 -2.512,-0.035 l 0.029,-1 c 0.824,0.023 1.641,0.036 2.482,0.035 0.826,0 1.647,-0.013 2.467,-0.037 l 0.029,1 c -0.828,0.024 -1.659,0.037 -2.495,0.037 z m -7.509,-0.325 c -1.655,-0.145 -3.328,-0.341 -4.972,-0.583 l 0.146,-0.989 c 1.624,0.239 3.276,0.433 4.913,0.576 l -0.087,0.996 z m 15.002,-0.008 -0.088,-0.996 c 1.637,-0.145 3.289,-0.34 4.913,-0.581 l 0.146,0.989 c -1.642,0.244 -3.315,0.442 -4.971,0.588 z m -24.903,-1.453 c -1.632,-0.341 -3.27,-0.734 -4.867,-1.169 l 0.262,-0.965 c 1.58,0.43 3.198,0.819 4.811,1.156 l -0.206,0.978 z m 34.803,-0.016 -0.205,-0.979 c 1.604,-0.337 3.223,-0.728 4.809,-1.16 l 0.264,0.965 c -1.606,0.438 -3.243,0.833 -4.868,1.174 z m -44.462,-2.61 c -1.576,-0.531 -3.158,-1.118 -4.701,-1.744 l 0.375,-0.927 c 1.525,0.619 3.089,1.198 4.646,1.724 l -0.32,0.947 z m 54.119,-0.026 -0.32,-0.947 c 1.555,-0.526 3.114,-1.106 4.636,-1.725 l 0.377,0.927 c -1.541,0.625 -3.12,1.212 -4.693,1.745 z m -63.409,-3.74 c -1.511,-0.72 -3.011,-1.49 -4.459,-2.291 l 0.484,-0.875 c 1.431,0.791 2.912,1.552 4.404,2.263 l -0.429,0.903 z m 72.674,-0.025 -0.432,-0.902 c 1.48,-0.708 2.959,-1.468 4.394,-2.26 l 0.484,0.875 c -1.453,0.802 -2.948,1.572 -4.446,2.287 z m -81.448,-4.816 c -1.406002,-0.889 -2.804002,-1.832 -4.153002,-2.801 l 0.584,-0.812 c 1.333,0.958 2.714,1.89 4.104002,2.768 l -0.535,0.845 z m 90.2,-0.019 -0.535,-0.845 c 1.394,-0.883 2.772,-1.813 4.098,-2.766 l 0.584,0.812 c -1.341,0.964 -2.737,1.906 -4.147,2.799 z m -98.335002,-5.823 c -1.291,-1.048 -2.567,-2.148 -3.794,-3.27 l 0.676,-0.738 c 1.211,1.108 2.473,2.195 3.749,3.231 l -0.631,0.777 z m 106.457002,-0.014 -0.631,-0.776 c 1.274,-1.035 2.534,-2.122 3.746,-3.23 l 0.676,0.737 c -1.226,1.121 -2.502,2.221 -3.791,3.269 z m -113.844002,-6.743 c -1.161,-1.194 -2.299,-2.437 -3.382,-3.692 l 0.758,-0.653 c 1.069,1.241 2.193,2.468 3.341,3.648 l -0.717,0.697 z m 121.228002,-0.014 -0.717,-0.696 c 1.144,-1.179 2.268,-2.407 3.341,-3.65 l 0.758,0.653 c -1.087,1.258 -2.224,2.5 -3.382,3.693 z m -127.767002,-7.561 c -1.007,-1.316 -1.99,-2.683 -2.922,-4.062 l 0.828,-0.56 c 0.921,1.363 1.894,2.713 2.889,4.014 l -0.795,0.608 z m 134.307002,-0.02 -0.795,-0.607 c 0.998,-1.305 1.971,-2.657 2.891,-4.02 l 0.828,0.56 c -0.931,1.379 -1.914,2.747 -2.924,4.067 z m -139.906002,-8.268 c -0.846,-1.427 -1.66,-2.899 -2.422,-4.376 l 0.889,-0.458 c 0.753,1.46 1.558,2.915 2.393,4.325 l -0.86,0.509 z m 145.512002,-0.034 -0.861,-0.51 c 0.84,-1.418 1.646,-2.876 2.396,-4.335 l 0.889,0.457 c -0.76,1.477 -1.576,2.953 -2.424,4.388 z m -150.090002,-8.853 c -0.674,-1.524 -1.308,-3.082 -1.884,-4.63 l 0.938,-0.349 c 0.569,1.53 1.195,3.069 1.86,4.574 l -0.914,0.405 z m 154.672002,-0.059 -0.914,-0.403 c 0.667,-1.513 1.294,-3.058 1.863,-4.591 l 0.938,0.348 c -0.577,1.552 -1.212,3.115 -1.887,4.646 z m -158.163002,-9.313 c -0.486,-1.592 -0.931,-3.217 -1.321,-4.829 l 0.973,-0.235 c 0.385,1.594 0.824,3.199 1.306,4.772 l -0.958,0.292 z m 161.656002,-0.086 -0.957,-0.291 c 0.479,-1.574 0.917,-3.18 1.3,-4.774 l 0.973,0.234 c -0.389,1.613 -0.832,3.239 -1.316,4.831 z m -164.009002,-9.642 c -0.294,-1.637 -0.542,-3.303 -0.737,-4.952 l 0.992,-0.118 c 0.193,1.629 0.438,3.275 0.729,4.893 l -0.984,0.177 z m 166.350002,-0.089 -0.984,-0.176 c 0.288,-1.612 0.531,-3.258 0.725,-4.894 l 0.992,0.117 c -0.195,1.656 -0.442,3.322 -0.733,4.953 z m -167.532002,-9.893 c -0.099,-1.659 -0.149,-3.05 -0.151,-5.05 h 1 c 0.002,2 0.052,3.328 0.149,4.968 l -0.998,0.082 z m 168.453002,-0.047 -1.123,-0.059 c 0.096,-1.634 0.02,-3.297 0.02,-4.945 l 0,0 h 1 l 0,0 c -0.001,1.668 0.2,3.352 0.103,5.004 z m -167.465002,-9.859 -0.998,-0.058 c 0.095,-1.652 0.24,-3.33 0.433,-4.986 l 0.994,0.115 c -0.191,1.638 -0.336,3.296 -0.429,4.929 z m 166.707002,-0.268 c -0.101,-1.643 -0.25,-3.301 -0.444,-4.927 l 0.992,-0.119 c 0.197,1.646 0.349,3.323 0.45,4.985 l -0.998,0.061 z m -165.560002,-9.554999 -0.984,-0.175 c 0.289,-1.628 0.632,-3.277 1.02,-4.901 l 0.973,0.232 c -0.384,1.605 -0.724,3.234 -1.009,4.844 z m 164.381002,-0.263 c -0.291,-1.614 -0.636,-3.243 -1.023,-4.84 l 0.973,-0.236 c 0.392,1.617 0.74,3.265 1.035,4.898 l -0.985,0.178 z m -162.077002,-9.355 -0.957,-0.29 c 0.482,-1.588 1.021,-3.188 1.601,-4.755 l 0.938,0.347 c -0.574,1.548 -1.106,3.129 -1.582,4.698 z m 159.740002,-0.256 c -0.477,-1.559 -1.013,-3.134 -1.592,-4.683 l 0.938,-0.351 c 0.586,1.568 1.128,3.163 1.611,4.741 l -0.957,0.293 z m -156.299002,-9.035002 -0.916,-0.402 c 0.668,-1.517 1.393,-3.04 2.154,-4.527 l 0.891,0.456 c -0.754,1.47 -1.47,2.975 -2.129,4.473 z m 152.842002,-0.22 c -0.664,-1.498 -1.383,-2.997 -2.136,-4.455 l 0.889,-0.459 c 0.763,1.476 1.489,2.993 2.161,4.509 l -0.914,0.405 z m -148.323002,-8.591 -0.861,-0.509 c 0.848,-1.435 1.748,-2.861 2.675,-4.237 l 0.83,0.559 c -0.918,1.359 -1.806,2.768 -2.644,4.187 z m 143.790002,-0.185 c -0.838,-1.411 -1.729,-2.815 -2.649,-4.174 l 0.828,-0.561 c 0.932,1.375 1.834,2.797 2.681,4.224 l -0.86,0.511 z m -138.261002,-8.026 -0.795,-0.606 c 1.009,-1.322 2.07,-2.63 3.155,-3.891 l 0.758,0.652 c -1.072,1.246 -2.121,2.539 -3.118,3.845 z m 132.719002,-0.16 c -0.999,-1.303 -2.05,-2.593 -3.124,-3.834 l 0.756,-0.654 c 1.087,1.256 2.15,2.562 3.161,3.88 l -0.793,0.608 z m -126.263002,-7.337 -0.719,-0.696 c 1.157,-1.193 2.364,-2.368 3.589,-3.491 l 0.676,0.736 c -1.21,1.111 -2.403,2.271 -3.546,3.451 z m 119.793002,-0.142 c -1.148,-1.18 -2.345,-2.338 -3.555,-3.442 l 0.674,-0.738 c 1.225,1.117 2.435,2.289 3.598,3.482 l -0.717,0.698 z m -112.504002,-6.543 -0.631,-0.775 c 1.286,-1.047 2.622,-2.071 3.973,-3.044 l 0.584,0.812 c -1.334,0.96 -2.654,1.972 -3.926,3.007 z m 105.197002,-0.125 c -1.278,-1.036 -2.603,-2.045 -3.937,-3.001 l 0.582,-0.812 c 1.35,0.967 2.69,1.989 3.983,3.037 l -0.628,0.776 z m -97.175,-5.652 -0.535,-0.845 c 1.401,-0.889 2.85,-1.748 4.302,-2.553 l 0.484,0.875 c -1.436,0.796 -2.866,1.644 -4.251,2.523 z m 89.13,-0.114 c -1.393,-0.878 -2.827,-1.724 -4.266,-2.516 l 0.482,-0.876 c 1.455,0.801 2.907,1.658 4.316,2.546 l -0.532,0.846 z m -80.488,-4.673 -0.432,-0.902 c 1.492,-0.714 3.03,-1.395 4.571,-2.023 l 0.377,0.926 c -1.522,0.62 -3.041,1.293 -4.516,1.999 z m 71.813,-0.101 c -1.488,-0.708 -3.015,-1.378 -4.536,-1.993 l 0.375,-0.927 c 1.54,0.622 3.084,1.3 4.591,2.017 l -0.43,0.903 z m -62.66,-3.629 -0.322,-0.947 c 1.576,-0.535 3.187,-1.028 4.788,-1.467 l 0.264,0.965 c -1.583,0.432 -3.174,0.92 -4.73,1.449 z m 53.475,-0.082 c -1.56,-0.524 -3.152,-1.007 -4.734,-1.436 l 0.262,-0.965 c 1.601,0.433 3.213,0.922 4.791,1.452 l -0.319,0.949 z m -43.938,-2.533 -0.207,-0.979 c 1.624,-0.342 3.282,-0.641 4.928,-0.888 l 0.148,0.989 c -1.627,0.245 -3.265,0.539 -4.869,0.878 z m 34.393,-0.052 c -1.609,-0.334 -3.248,-0.624 -4.872,-0.862 l 0.145,-0.989 c 1.644,0.241 3.303,0.534 4.931,0.872 l -0.204,0.979 z m -24.612,-1.411 -0.09,-0.996 c 1.653,-0.148 3.335,-0.249 4.998,-0.299 l 0.031,1 c -1.644,0.049 -3.306,0.149 -4.939,0.295 z m 14.826,-0.023 c -1.635,-0.141 -3.296,-0.236 -4.939,-0.281 l 0.027,-1 c 1.663,0.046 3.345,0.142 4.998,0.285 l -0.086,0.996 z"
       id="path5619" />
    <text
       xml:space="preserve"
       style="font-size:45.54030609000000100px;font-style:normal;font-variant:normal;font-weight:normal;font-stretch:normal;line-height:125%;letter-spacing:0px;word-spacing:0px;fill:#efefe3;fill-opacity:1;stroke:none;font-family:Lucida Sans Typewriter;-inkscape-font-specification:Lucida Sans Typewriter"
       x="71.458763"
       y="86.905769"
       id="text6594"
       sodipodi:linespacing="125%"
       transform="scale(0.81080361,1.2333443)"><tspan
         sodipodi:role="line"
         id="tspan6596"
         x="71.458763"
         y="86.905769"
         style="font-style:normal;font-variant:normal;font-weight:600;font-stretch:normal;fill:#efefe3;font-family:Lucida Bright;-inkscape-font-specification:Lucida Bright Semi-Bold;fill-opacity:1">MATT</tspan></text>
    <text
       xml:space="preserve"
       style="font-size:29.15185928000000000px;font-style:normal;font-variant:normal;font-weight:normal;font-stretch:normal;line-height:125%;letter-spacing:0px;word-spacing:0px;fill:#efefe3;fill-opacity:1;stroke:none;font-family:Lucida Sans Typewriter;-inkscape-font-specification:Lucida Sans Typewriter"
       x="75.928101"
       y="105.31458"
       id="text6598"
       sodipodi:linespacing="125%"
       transform="scale(0.75905789,1.3174226)"><tspan
         sodipodi:role="line"
         id="tspan6600"
         x="75.928101"
         y="105.31458"
         style="font-style:normal;font-variant:normal;font-weight:bold;font-stretch:normal;font-family:Lucida Bright;-inkscape-font-specification:Lucida Bright;fill:#efefe3;fill-opacity:1">STEPHENS</tspan></text>
    <text
       xml:space="preserve"
       style="font-size:44.91389084000000100px;font-style:normal;font-variant:normal;font-weight:normal;font-stretch:normal;line-height:125%;letter-spacing:0px;word-spacing:0px;fill:#efefe3;fill-opacity:1;stroke:none;font-family:Lucida Bright;-inkscape-font-specification:Lucida Bright"
       x="71.419083"
       y="127.19245"
       id="text6620"
       sodipodi:linespacing="125%"
       transform="scale(0.81584628,1.2257211)"><tspan
         sodipodi:role="line"
         id="tspan6622"
         x="71.419083"
         y="127.19245"
         style="font-size:11.22847271000000000px;font-weight:bold;fill:#efefe3;fill-opacity:1">STUDENT</tspan></text>
    <text
       xml:space="preserve"
       style="font-size:36.59554290999999900px;font-style:normal;font-variant:normal;font-weight:normal;font-stretch:normal;line-height:125%;letter-spacing:0px;word-spacing:0px;fill:#efefe3;fill-opacity:1;stroke:none;font-family:Lucida Bright;-inkscape-font-specification:Lucida Bright"
       x="149.94247"
       y="124.28162"
       id="text6624"
       sodipodi:linespacing="125%"
       transform="scale(0.79717595,1.2544282)"><tspan
         sodipodi:role="line"
         id="tspan6626"
         x="149.94247"
         y="124.28162"
         style="font-size:10.97866153999999900px;font-weight:bold;fill:#efefe3;fill-opacity:1">DEVELOPER</tspan></text>
    <text
       xml:space="preserve"
       style="font-size:23.01327515px;font-style:normal;font-variant:normal;font-weight:normal;font-stretch:normal;line-height:125%;letter-spacing:0px;word-spacing:0px;fill:#333;fill-opacity:1;stroke:none;font-family:Lucida Sans Typewriter;-inkscape-font-specification:Lucida Sans Typewriter"
       x="105.80243"
       y="150.08244"
       id="text6628"
       sodipodi:linespacing="125%"
       transform="scale(0.96349231,1.037891)"><tspan
         sodipodi:role="line"
         id="tspan6630"
         x="105.80243"
         y="150.08244"
         style="font-size:20.36997223px;font-style:normal;font-variant:normal;font-weight:normal;font-stretch:normal;fill:#f1f1e9;font-family:Lucida Calligraphy;-inkscape-font-specification:Lucida Calligraphy">&amp;</tspan></text>
    <path
       style="fill:none;stroke:#efefe3;stroke-width:1.04991971999999990px;stroke-linecap:butt;stroke-linejoin:miter;stroke-opacity:1"
       d="m 58.73925,142.73121 47.46391,0"
       id="path7170"
       inkscape:connector-curvature="0" />
    <path
       style="fill:none;stroke:#efefe3;stroke-width:1.14966404000000000px;stroke-linecap:butt;stroke-linejoin:miter;stroke-opacity:1"
       d="m 116.36983,142.68134 56.91062,0"
       id="path7170-7"
       inkscape:connector-curvature="0" />
  </g>
</svg>
