<?xml version="1.0" encoding="UTF-8" standalone="no"?>
<!-- Created with Inkscape (http://www.inkscape.org/) -->

<svg
   xmlns:dc="http://purl.org/dc/elements/1.1/"
   xmlns:cc="http://creativecommons.org/ns#"
   xmlns:rdf="http://www.w3.org/1999/02/22-rdf-syntax-ns#"
   xmlns:svg="http://www.w3.org/2000/svg"
   xmlns="http://www.w3.org/2000/svg"
   xmlns:sodipodi="http://sodipodi.sourceforge.net/DTD/sodipodi-0.dtd"
   xmlns:inkscape="http://www.inkscape.org/namespaces/inkscape"
   width="240"
   height="240"
   id="svg3032"
   version="1.1"
   inkscape:version="0.48.4 r9939"
   sodipodi:docname="New document 3">
  <defs
     id="defs3034" />
  <sodipodi:namedview
     id="base"
     pagecolor="#ffffff"
     bordercolor="#666666"
     borderopacity="1.0"
     inkscape:pageopacity="0.0"
     inkscape:pageshadow="2"
     inkscape:zoom="1.979899"
     inkscape:cx="186.58146"
     inkscape:cy="113.17628"
     inkscape:document-units="px"
     inkscape:current-layer="layer1"
     showgrid="false"
     guidetolerance="10000"
     inkscape:window-width="1920"
     inkscape:window-height="1018"
     inkscape:window-x="-8"
     inkscape:window-y="-8"
     inkscape:window-maximized="1" />
  <metadata
     id="metadata3037">
    <rdf:RDF>
      <cc:Work
         rdf:about="">
        <dc:format>image/svg+xml</dc:format>
        <dc:type
           rdf:resource="http://purl.org/dc/dcmitype/StillImage" />
        <dc:title></dc:title>
      </cc:Work>
    </rdf:RDF>
  </metadata>
  <g
     inkscape:label="Layer 1"
     inkscape:groupmode="layer"
     id="layer1"
     transform="translate(0,-812.36218)">
    <polygon
       transform="matrix(1.0908808,0,0,1.1022667,-726.52661,681.01514)"
       points="675.025,213.476 670.429,197.002 683.192,185.62 683.452,168.521 698.91,161.204 703.964,144.866 720.853,142.178 730.292,127.917 747.253,130.105 760.347,119.106 776,126 791.653,119.106 804.748,130.106 821.708,127.917 831.148,142.178 848.037,144.867 853.091,161.205 868.549,168.521 868.808,185.62 881.571,197.003 876.975,213.476 886,228 876.975,242.524 881.57,258.998 868.808,270.38 868.548,287.479 853.09,294.796 848.036,311.134 831.147,313.822 821.708,328.083 804.747,325.895 791.653,336.894 776,330 760.347,336.894 747.252,325.894 730.292,328.083 720.852,313.822 703.963,311.133 698.909,294.795 683.451,287.479 683.192,270.38 670.429,258.997 675.025,242.524 666,228 "
       id="polygon5613"
       style="fill:#333333" />
    <path
       style="fill:#efefe3;fill-opacity:1"
       inkscape:connector-curvature="0"
       d="m 119.99686,1033.1894 c -55.038222,0 -99.815608,-45.24476 -99.815608,-100.85745 0,-55.61267 44.777386,-100.8574 99.815608,-100.8574 55.03821,0 99.81559,45.24473 99.81559,100.8574 0,55.61269 -44.77738,100.85745 -99.81559,100.85745 z m 0,-198.40806 c -53.233906,0 -96.542966,43.76109 -96.542966,97.55061 0,53.78953 43.30906,97.55055 96.542966,97.55055 53.23389,0 96.54295,-43.76102 96.54295,-97.55055 0,-53.78952 -43.30906,-97.55061 -96.54295,-97.55061 z"
       id="path5615" />
    <path
       style="fill:#efefe3;fill-opacity:1"
       inkscape:connector-curvature="0"
       d="m 119.99686,1019.9622 c -47.820956,0 -86.725039,-39.31127 -86.725039,-87.63025 0,-48.31897 38.904083,-87.6302 86.725039,-87.6302 47.82094,0 86.72502,39.31123 86.72502,87.6302 0,48.31898 -38.90408,87.63025 -86.72502,87.63025 z m 0,-171.95366 c -46.016639,0 -83.452396,37.8276 -83.452396,84.32341 0,46.49583 37.435757,84.32335 83.452396,84.32335 46.01662,0 83.45238,-37.82752 83.45238,-84.32335 0,-46.49581 -37.43576,-84.32341 -83.45238,-84.32341 z"
       id="path5617" />
    <path
       style="fill:#efefe3;fill-opacity:1"
       inkscape:connector-curvature="0"
       d="m 120.04922,1025.4734 c -0.91306,0 -1.83049,-0.013 -2.7403,-0.039 l 0.0316,-1.1021 c 0.89888,0.025 1.79013,0.04 2.70756,0.038 0.90107,0 1.79669,-0.014 2.6912,-0.041 l 0.0316,1.1022 c -0.90325,0.027 -1.80977,0.041 -2.72175,0.041 z m -8.19142,-0.3582 c -1.8054,-0.1598 -3.63047,-0.3758 -5.42388,-0.6426 l 0.15928,-1.0901 c 1.77159,0.2634 3.57374,0.4773 5.35951,0.6348 l -0.0949,1.0979 z m 16.3654,-0.011 -0.096,-1.0979 c 1.78577,-0.1597 3.58791,-0.3747 5.3595,-0.6403 l 0.15927,1.09 c -1.79122,0.269 -3.61627,0.4872 -5.42276,0.6482 z m -27.16623,-1.6016 c -1.780315,-0.3759 -3.567175,-0.8091 -5.309315,-1.2885 l 0.28581,-1.0637 c 1.7236,0.4739 3.48864,0.9027 5.248235,1.2742 l -0.22473,1.078 z m 37.96595,-0.018 -0.22364,-1.079 c 1.74977,-0.3715 3.51591,-0.8025 5.24605,-1.2787 l 0.28799,1.0637 c -1.75196,0.4828 -3.53773,0.9182 -5.3104,1.294 z m -48.502765,-2.8769 c -1.719228,-0.5853 -3.445001,-1.2323 -5.12823,-1.9223 l 0.409079,-1.0218 c 1.663594,0.6824 3.369731,1.3206 5.068231,1.9003 l -0.34908,1.0438 z m 59.037395,-0.029 -0.34909,-1.0439 c 1.69633,-0.5797 3.39701,-1.219 5.05733,-1.9014 l 0.41126,1.0218 c -1.68105,0.689 -3.40354,1.336 -5.1195,1.9235 z m -69.171677,-4.1224 c -1.648321,-0.7937 -3.284642,-1.6424 -4.864238,-2.5253 l 0.527987,-0.9645 c 1.56105,0.8719 3.176645,1.7107 4.804238,2.4944 l -0.467987,0.9954 z m 79.278677,-0.028 -0.47125,-0.9943 c 1.6145,-0.7803 3.22791,-1.6181 4.79333,-2.4911 l 0.52798,0.9645 c -1.58505,0.884 -3.21592,1.7327 -4.85006,2.5209 z m -88.850065,-5.3085 c -1.533778,-0.9799 -3.058829,-2.0194 -4.530427,-3.0875 l 0.637074,-0.895 c 1.454144,1.056 2.960649,2.0833 4.476974,3.0511 l -0.583621,0.9314 z m 98.397455,-0.021 -0.58362,-0.9314 c 1.52069,-0.9733 3.02393,-1.9984 4.47043,-3.0489 l 0.63708,0.8951 c -1.46287,1.0625 -2.98575,2.1009 -4.52389,3.0852 z M 61.94017,1004.681 c -1.408328,-1.1552 -2.800291,-2.3677 -4.138801,-3.6044 l 0.737435,-0.8135 c 1.321057,1.2213 2.697747,2.4195 4.089711,3.5614 l -0.688345,0.8565 z m 116.13191,-0.015 -0.68835,-0.8554 c 1.38979,-1.1408 2.7643,-2.339 4.08644,-3.5603 l 0.73744,0.8124 c -1.33742,1.2356 -2.72939,2.4481 -4.13553,3.6033 z M 53.881832,997.23343 c -1.266513,-1.31611 -2.507936,-2.68622 -3.689359,-4.06956 l 0.826887,-0.71979 c 1.166152,1.36791 2.392302,2.7204 3.644635,4.02107 l -0.782163,0.76828 z m 132.245318,-0.0154 -0.78217,-0.76718 c 1.24796,-1.29957 2.47412,-2.65315 3.64463,-4.02327 l 0.82689,0.71978 c -1.18579,1.38666 -2.42612,2.75567 -3.68935,4.07067 z M 46.748562,988.88375 c -1.098516,-1.45058 -2.170852,-2.95738 -3.187553,-4.4774 l 0.903249,-0.61727 c 1.004701,1.50239 2.066128,2.99044 3.151555,4.42449 l -0.867251,0.67018 z m 146.512938,-0.0221 -0.86725,-0.66909 c 1.0887,-1.43845 2.15013,-2.92872 3.15374,-4.4311 l 0.90325,0.61727 c -1.01561,1.52002 -2.08795,3.02793 -3.18974,4.48292 z M 40.640721,979.74817 c -0.922885,-1.57292 -1.810862,-3.19546 -2.642113,-4.82351 l 0.969792,-0.50485 c 0.821434,1.60931 1.699593,3.21312 2.610478,4.76731 l -0.938157,0.56105 z m 158.736259,-0.0375 -0.93925,-0.56215 c 0.91634,-1.56302 1.79559,-3.17013 2.61376,-4.77834 l 0.96978,0.50374 c -0.82907,1.62805 -1.71922,3.25499 -2.64429,4.83675 z M 35.646668,969.95232 c -0.735253,-1.67986 -1.426871,-3.39719 -2.055219,-5.1035 l 1.023247,-0.38469 c 0.620711,1.68648 1.303602,3.38286 2.029038,5.04177 l -0.997066,0.44642 z m 168.728732,-0.0651 -0.99707,-0.44421 c 0.72762,-1.66773 1.4116,-3.37073 2.03231,-5.0605 l 1.02324,0.38359 c -0.62943,1.71071 -1.32214,3.43356 -2.05848,5.12112 z M 31.838404,959.62186 c -0.530168,-1.7548 -1.015609,-3.54598 -1.441053,-5.32284 l 1.061427,-0.25903 c 0.419988,1.75702 0.898885,3.52614 1.42469,5.26002 l -1.045064,0.32185 z m 176.347436,-0.0948 -1.04397,-0.32076 c 0.52253,-1.73497 1.00033,-3.5052 1.41814,-5.26222 l 1.06143,0.25793 c -0.42435,1.77796 -0.90761,3.57024 -1.4356,5.32505 z M 29.271562,948.89902 c -0.320719,-1.80441 -0.591257,-3.64079 -0.803979,-5.45842 l 1.082153,-0.13008 c 0.21054,1.79559 0.477806,3.60992 0.795252,5.3934 l -1.073426,0.1951 z m 181.468028,-0.0981 -1.07342,-0.19399 c 0.31417,-1.77686 0.57926,-3.5912 0.79089,-5.3945 l 1.08215,0.12897 c -0.21272,1.82535 -0.48217,3.66173 -0.79962,5.45952 z M 27.982141,937.89619 c -0.107998,-1.82866 -0.162542,-3.36191 -0.164723,-5.56645 h 1.09088 c 0.0022,2.20454 0.05673,3.66835 0.162542,5.47606 l -1.088699,0.0904 z m 183.762159,-0.0518 -1.22507,-0.065 c 0.10473,-1.8011 0.0218,-3.63416 0.0218,-5.4507 l 0,0 h 1.09088 l 0,0 c -0.001,1.83858 0.21817,3.69479 0.11236,5.51574 z m -182.68437,-10.86724 -1.088698,-0.0639 c 0.103634,-1.82094 0.261811,-3.67055 0.472351,-5.4959 l 1.084335,0.12676 c -0.208358,1.80552 -0.366535,3.63307 -0.467988,5.43308 z m 181.85748,-0.29541 c -0.11019,-1.81102 -0.27273,-3.63859 -0.48436,-5.43087 l 1.08217,-0.13116 c 0.21489,1.81432 0.3807,3.66283 0.49089,5.49479 l -1.0887,0.0673 z m -180.606239,-10.53218 -1.073426,-0.1929 c 0.315264,-1.79449 0.689436,-3.61213 1.112698,-5.4022 l 1.061426,0.25572 c -0.418897,1.76913 -0.789797,3.56473 -1.100698,5.33938 z m 179.320089,-0.2899 c -0.31745,-1.77905 -0.6938,-3.57465 -1.11598,-5.33497 l 1.06144,-0.26013 c 0.42762,1.78236 0.80725,3.5989 1.12906,5.3989 l -1.07452,0.1962 z m -176.8067,-10.31169 -1.043972,-0.31966 c 0.525804,-1.75039 1.113789,-3.51402 1.7465,-5.24128 l 1.023245,0.38249 c -0.626164,1.7063 -1.206513,3.449 -1.725773,5.17845 z m 174.25731,-0.27998 c -0.52035,-1.71843 -1.10506,-3.4545 -1.73668,-5.16191 l 1.02325,-0.38689 c 0.63925,1.72834 1.2305,3.48646 1.75741,5.22584 l -1.04398,0.32296 z M 36.578281,895.30901 35.579035,894.8659 c 0.728708,-1.67214 1.519596,-3.35088 2.349756,-4.98996 l 0.971975,0.50264 c -0.822524,1.62033 -1.603595,3.27924 -2.322485,4.93043 z m 166.732409,-0.24249 c -0.72434,-1.6512 -1.50868,-3.30349 -2.33012,-4.91061 l 0.9698,-0.50593 c 0.83234,1.62694 1.62432,3.29908 2.35739,4.97012 l -0.99707,0.44642 z m -161.802719,-9.46957 -0.939248,-0.56106 c 0.925067,-1.58175 1.906859,-3.15358 2.918106,-4.6703 l 0.905431,0.61616 c -1.001428,1.49799 -1.970131,3.05108 -2.884289,4.6152 z m 156.857759,-0.20393 c -0.91415,-1.55529 -1.88613,-3.10288 -2.88974,-4.60086 l 0.90325,-0.61837 c 1.0167,1.51562 2.00068,3.08304 2.92465,4.65597 l -0.93816,0.56326 z M 47.539451,876.54623 46.6722,875.87826 c 1.100699,-1.45719 2.258124,-2.89897 3.44173,-4.28892 l 0.826887,0.71868 c -1.169424,1.37342 -2.313758,2.79866 -3.401366,4.23821 z m 144.780619,-0.17636 c -1.08979,-1.43626 -2.2363,-2.85818 -3.40791,-4.22609 l 0.82471,-0.72088 c 1.18579,1.38445 2.34539,2.824 3.44827,4.27679 l -0.86507,0.67018 z m -137.737891,-8.08734 -0.784345,-0.76717 c 1.262151,-1.315 2.578844,-2.61017 3.915173,-3.84801 l 0.737436,0.81126 c -1.319967,1.22462 -2.621387,2.50325 -3.868264,3.80392 z m 130.679891,-0.15652 c -1.25233,-1.30067 -2.55811,-2.5771 -3.87808,-3.794 l 0.73526,-0.81347 c 1.33633,1.23124 2.65629,2.52309 3.92499,3.83809 l -0.78217,0.76938 z m -122.728461,-7.21213 -0.688346,-0.85425 c 1.402873,-1.15408 2.860289,-2.2828 4.33407,-3.3553 l 0.637074,0.89504 c -1.455235,1.05817 -2.895198,2.17366 -4.282798,3.31451 z M 177.29101,860.7761 c -1.39415,-1.14195 -2.83956,-2.25413 -4.29479,-3.3079 l 0.63488,-0.89504 c 1.47269,1.06589 2.93447,2.19241 4.34498,3.34758 l -0.68507,0.85536 z m -106.006355,-6.23002 -0.583622,-0.93141 c 1.528324,-0.97991 3.10901,-1.92676 4.692969,-2.81408 l 0.527986,0.96448 c -1.566504,0.8774 -3.126464,1.81212 -4.637333,2.78101 z m 97.230215,-0.12565 c -1.51959,-0.96779 -3.08392,-1.90031 -4.65369,-2.7733 l 0.5258,-0.96558 c 1.58723,0.8829 3.17119,1.82755 4.70824,2.80636 l -0.58035,0.93252 z m -87.802824,-5.1509 -0.471261,-0.99423 c 1.627595,-0.78702 3.305369,-1.53767 4.986416,-2.2299 l 0.411262,1.02071 c -1.66032,0.68341 -3.317368,1.42522 -4.926417,2.20342 z m 78.339434,-0.11132 c -1.62323,-0.7804 -3.289,-1.51892 -4.94823,-2.19681 l 0.40908,-1.0218 c 1.67996,0.68561 3.36427,1.43293 5.00823,2.22326 l -0.46908,0.99535 z m -68.354605,-4.00012 -0.35126,-1.04385 c 1.71923,-0.58972 3.47664,-1.13313 5.22314,-1.61703 l 0.28799,1.06369 c -1.72686,0.47618 -3.46246,1.01409 -5.15987,1.59719 z m 58.334865,-0.0904 c -1.70177,-0.57758 -3.43845,-1.10998 -5.16423,-1.58285 l 0.28581,-1.06368 c 1.74651,0.47728 3.505,1.01629 5.22641,1.60049 l -0.34799,1.04604 z m -47.93113,-2.79203 -0.22581,-1.07912 c 1.77159,-0.37698 3.58027,-0.70656 5.37586,-0.97881 l 0.16145,1.09013 c -1.77487,0.27006 -3.56173,0.59412 -5.3115,0.9678 z m 37.51867,-0.0573 c -1.75523,-0.36816 -3.54318,-0.68782 -5.31476,-0.95016 l 0.15817,-1.09013 c 1.79341,0.26564 3.60319,0.58861 5.37914,0.96117 l -0.22255,1.07912 z m -26.84876,-1.5553 -0.0982,-1.09786 c 1.80322,-0.16314 3.63808,-0.27446 5.45222,-0.32958 l 0.0338,1.10227 c -1.79341,0.054 -3.60645,0.16424 -5.38787,0.32517 z m 16.1734,-0.0254 c -1.78359,-0.15542 -3.59553,-0.26013 -5.38785,-0.30974 l 0.0295,-1.10226 c 1.81413,0.0507 3.64899,0.15653 5.45222,0.31415 l -0.0938,1.09785 z"
       id="path5619" />
    <text
       xml:space="preserve"
       style="font-size:49.9376297px;font-style:normal;font-variant:normal;font-weight:normal;font-stretch:normal;line-height:125%;letter-spacing:0px;word-spacing:0px;fill:#efefe3;fill-opacity:1;stroke:none;font-family:Lucida Sans Typewriter;-inkscape-font-specification:Lucida Sans Typewriter"
       x="70.630501"
       y="747.42053"
       id="text6594"
       sodipodi:linespacing="125%"
       transform="scale(0.80660512,1.239764)"><tspan
         sodipodi:role="line"
         id="tspan6596"
         x="70.630501"
         y="747.42053"
         style="font-style:normal;font-variant:normal;font-weight:600;font-stretch:normal;fill:#efefe3;fill-opacity:1;font-family:Lucida Bright;-inkscape-font-specification:Lucida Bright Semi-Bold">MATT</tspan></text>
    <text
       xml:space="preserve"
       style="font-size:31.96673203px;font-style:normal;font-variant:normal;font-weight:normal;font-stretch:normal;line-height:125%;letter-spacing:0px;word-spacing:0px;fill:#efefe3;fill-opacity:1;stroke:none;font-family:Lucida Sans Typewriter;-inkscape-font-specification:Lucida Sans Typewriter"
       x="75.004524"
       y="725.98816"
       id="text6598"
       sodipodi:linespacing="125%"
       transform="scale(0.75512732,1.32428)"><tspan
         sodipodi:role="line"
         id="tspan6600"
         x="75.004524"
         y="725.98816"
         style="font-style:normal;font-variant:normal;font-weight:bold;font-stretch:normal;fill:#efefe3;fill-opacity:1;font-family:Lucida Bright;-inkscape-font-specification:Lucida Bright">STEPHENS</tspan></text>
    <text
       xml:space="preserve"
       style="font-size:49.25072861px;font-style:normal;font-variant:normal;font-weight:normal;font-stretch:normal;line-height:125%;letter-spacing:0px;word-spacing:0px;fill:#efefe3;fill-opacity:1;stroke:none;font-family:Lucida Bright;-inkscape-font-specification:Lucida Bright"
       x="70.63475"
       y="795.65295"
       id="text6620"
       sodipodi:linespacing="125%"
       transform="scale(0.8116217,1.2321011)"><tspan
         sodipodi:role="line"
         id="tspan6622"
         x="70.63475"
         y="795.65295"
         style="font-size:12.31268215px;font-weight:bold;fill:#efefe3;fill-opacity:1">STUDENT</tspan></text>
    <text
       xml:space="preserve"
       style="font-size:40.12916946px;font-style:normal;font-variant:normal;font-weight:normal;font-stretch:normal;line-height:125%;letter-spacing:0px;word-spacing:0px;fill:#efefe3;fill-opacity:1;stroke:none;font-family:Lucida Bright;-inkscape-font-specification:Lucida Bright"
       x="156.56036"
       y="777.4447"
       id="text6624"
       sodipodi:linespacing="125%"
       transform="scale(0.79304802,1.2609577)"><tspan
         sodipodi:role="line"
         id="tspan6626"
         x="156.56036"
         y="777.4447"
         style="font-size:12.03874874px;font-weight:bold;fill:#efefe3;fill-opacity:1">DEVELOPER</tspan></text>
    <text
       xml:space="preserve"
       style="font-size:25.2354126px;font-style:normal;font-variant:normal;font-weight:normal;font-stretch:normal;line-height:125%;letter-spacing:0px;word-spacing:0px;fill:#333333;fill-opacity:1;stroke:none;font-family:Lucida Sans Typewriter;-inkscape-font-specification:Lucida Sans Typewriter"
       x="109.51509"
       y="939.50378"
       id="text6628"
       sodipodi:linespacing="125%"
       transform="scale(0.95850315,1.0432934)"><tspan
         sodipodi:role="line"
         id="tspan6630"
         x="109.51509"
         y="939.50378"
         style="font-size:22.33687592px;font-style:normal;font-variant:normal;font-weight:normal;font-stretch:normal;fill:#f1f1e9;font-family:Lucida Calligraphy;-inkscape-font-specification:Lucida Calligraphy">&amp;</tspan></text>
    <path
       style="fill:none;stroke:#efefe3;stroke-width:1.15129888px;stroke-linecap:butt;stroke-linejoin:miter;stroke-opacity:1"
       d="m 57.843869,965.80671 51.777481,0"
       id="path7170"
       inkscape:connector-curvature="0" />
    <path
       style="fill:none;stroke:#efefe3;stroke-width:1.26067448px;stroke-linecap:butt;stroke-linejoin:miter;stroke-opacity:1"
       d="m 120.71198,965.75171 62.0827,0"
       id="path7170-7"
       inkscape:connector-curvature="0" />
  </g>
</svg>
