<svg width="260.74902" height="266.50397" xmlns="http://www.w3.org/2000/svg">
 <metadata id="metadata7">image/svg+xml</metadata>
 <defs>
  <marker refY="50" refX="50" markerHeight="5" markerWidth="5" viewBox="0 0 100 100" se_type="rightarrow" orient="auto" markerUnits="strokeWidth" id="se_marker_start_path2251">
   <path stroke-width="10" fill="none" d="m100,50l-100,40l30,-40l-30,-40z"/>
  </marker>
 </defs>
 <g>
  <title>Layer 1</title>
  <path marker-start="url(#se_marker_start_path2251)" fill="#333" id="path2251" d="m173.268356,262.459259c-3.816666,-13.412384 -5.45874,-27.891968 -4.257294,-37.539703c1.101547,-8.845184 2.251328,-11.231293 6.305038,-13.08432c2.836166,-1.296478 4.516098,-3.421005 3.92572,-4.964645c-0.761932,-1.992096 0.29364,-2.364517 4.033142,-1.422882c2.785904,0.701492 4.922073,0.485229 4.747025,-0.480576c-0.756241,-4.173523 0.441162,-4.770905 4.694702,-2.342163c2.494522,1.424362 5.442612,2.658707 6.55127,2.742996c1.108643,0.084274 5.528152,1.681107 9.821075,3.548508c9.593674,4.173187 10.200806,4.181152 13.513031,0.177124c2.353958,-2.845596 1.955338,-3.1064 -3.443253,-2.252777c-4.61615,0.729874 -6.729095,-0.03656 -8.662231,-3.142181c-2.237411,-3.59436 -2.125565,-3.941467 0.89534,-2.778473c2.991379,1.151657 3.274948,0.380875 2.124054,-5.77388c-0.730469,-3.906631 -0.598206,-7.102966 0.294052,-7.102966c1.987198,0 7.643112,8.516663 7.05101,10.617432c-0.235092,0.834229 0.986725,1.516785 2.715164,1.516785c1.728439,0 2.582031,0.910065 1.896835,2.022369c-0.685196,1.112305 0.54631,2.022369 2.736664,2.022369c2.190399,0 4.345596,1.092758 4.789368,2.42836c0.595001,1.790817 1.180008,1.822479 2.22847,0.120544c0.781921,-1.269272 -0.480957,-4.086136 -2.806366,-6.259659c-2.40181,-2.244873 -3.3703,-4.483627 -2.242371,-5.183014c2.404449,-1.490891 8.427521,0.620377 12.068359,4.230286c3.858856,3.826126 6.304398,3.260101 8.248444,-1.90921c1.421097,-3.77887 0.759979,-5.064651 -3.899323,-7.583893c-4.055725,-2.192871 -4.966888,-3.593994 -3.288055,-5.055923c1.277405,-1.112305 3.229614,-2.07312 4.338318,-2.135147c3.560364,-0.199219 13.102478,-3.327591 13.102478,-4.295654c0,-0.515015 -1.385895,-2.326874 -3.079834,-4.026337c-2.457153,-2.46524 -3.679733,-2.590408 -6.047348,-0.619095c-1.63208,1.358948 -2.967468,1.792938 -2.967468,0.964386c0,-0.828537 -1.534714,-0.257431 -3.410583,1.26915c-2.943192,2.395233 -3.15892,2.359863 -1.57402,-0.257965c1.010147,-1.668442 1.548676,-5.266876 1.196655,-7.996506c-0.576279,-4.469345 -0.297729,-4.67807 2.800095,-2.098709c2.996964,2.495422 3.764954,2.418335 5.963745,-0.598557c1.388092,-1.904541 3.557663,-3.462814 4.821335,-3.462814c1.26355,0 2.297424,-1.917496 2.297424,-4.261108c0,-2.956772 -0.925507,-3.90477 -3.023651,-3.097015c-1.662964,0.640244 -3.023651,0.282578 -3.023651,-0.794815c0,-2.863998 -5.535629,-2.395782 -6.728073,0.569061c-0.559204,1.390381 -1.088379,0.025269 -1.175873,-3.033554c-0.087494,-3.058838 0.747955,-5.561508 1.856598,-5.561508c1.108719,0 2.015808,-1.365097 2.015808,-3.033554c0,-1.685303 -1.791824,-3.033554 -4.031555,-3.033554c-3.07164,0 -4.031509,-1.348251 -4.031509,-5.662628c0,-3.114456 -0.934769,-6.600479 -2.07724,-7.746674c-2.740204,-2.749161 0.21019,-9.847961 4.092987,-9.847961c1.662994,0 4.265488,1.180923 5.783371,2.624268c3.419525,3.25174 4.212418,2.507004 5.191513,-4.876328c0.425812,-3.210571 1.357666,-7.312592 2.070709,-9.115585c0.797791,-2.017242 0.088928,-3.743088 -1.843002,-4.486862c-3.730774,-1.436325 -4.081146,-5.649033 -0.747879,-8.993195c2.993408,-3.003204 4.202881,-10.407143 2.370331,-14.509972c-1.655716,-3.706696 -2.157654,-5.394035 -2.494186,-8.384361c-0.13858,-1.231316 -1.696594,-1.682594 -3.462173,-1.002846c-2.13414,0.821602 -3.560013,-0.106056 -4.253677,-2.767349c-0.682083,-2.61692 -3.426804,-4.45182 -7.925873,-5.298607c-3.785324,-0.712463 -8.034653,-2.945824 -9.442963,-4.96302c-1.408279,-2.01722 -5.014496,-4.285576 -8.013779,-5.04081c-2.999237,-0.755241 -5.453217,-2.18457 -5.453217,-3.176292c0,-0.991707 -1.360626,-1.803123 -3.023666,-1.803123c-1.663025,0 -3.023651,0.910065 -3.023651,2.022369c0,1.112297 -0.907089,2.022377 -2.015793,2.022377c-1.108688,0 -2.015808,-1.802811 -2.015808,-4.00621c0,-2.56028 -1.775009,-4.453171 -4.917999,-5.244606c-4.326691,-1.089485 -4.68335,-1.857651 -2.966339,-6.388474c1.508636,-3.981104 1.178864,-6.006794 -1.452927,-8.924379c-1.872482,-2.075874 -3.799332,-3.378204 -4.281906,-2.894073c-0.482529,0.484131 -3.992935,-0.875389 -7.800812,-3.021152c-3.807861,-2.145771 -8.763596,-3.90139 -11.01265,-3.90139c-2.608765,0 -3.561554,-0.856571 -2.631668,-2.366051c1.005066,-1.631451 0.318832,-1.92765 -2.210175,-0.95401c-2.419525,0.931499 -5.22699,-0.05764 -8.249649,-2.906601c-2.520111,-2.375229 -5.780716,-3.89093 -7.245804,-3.368198c-1.465057,0.522739 -4.931549,-0.16721 -7.703232,-1.533211c-6.260513,-3.08543 -17.632416,-3.46944 -19.366814,-0.653969c-0.839684,1.363129 -1.968819,1.137508 -3.212151,-0.64186c-1.113258,-1.593251 -2.289261,-1.895809 -2.804474,-0.721501c-2.385284,5.43742 -4.613869,7.30859 -9.066086,7.61216c-2.671974,0.182159 -5.931038,1.37561 -7.242485,2.65205c-1.311417,1.27647 -5.934639,2.890381 -10.273705,3.586502c-9.793999,1.571259 -25.026878,14.726295 -20.431488,17.644617c1.56913,0.996506 2.107918,1.825768 1.197205,1.842796c-0.910667,0.017029 -0.172104,1.519569 1.641396,3.338989c1.813469,1.819405 2.558586,4.009995 1.655861,4.867981c-2.755104,2.61834 -17.517181,5.990158 -18.686211,4.268127c-0.603481,-0.888863 -2.747143,-2.227798 -4.763657,-2.975403c-2.947411,-1.092644 -3.540478,-0.468727 -3.023697,3.181076c0.353523,2.497177 1.549889,4.399719 2.658607,4.227859c3.179981,-0.49295 5.08778,4.08387 2.4133,5.789635c-3.699265,2.359383 -5.436974,1.901566 -5.436974,-1.432426c0,-1.668449 -1.440369,-3.033554 -3.200867,-3.033554c-2.64642,0 -2.952793,1.48864 -1.768883,8.59507c1.483055,8.901672 4.156673,12.255676 8.497406,10.659653c3.845837,-1.41407 3.003548,2.505875 -1.511902,7.036064c-4.601601,4.616661 -5.09864,8.232262 -1.612598,11.729744c1.711288,1.716873 1.753426,2.426849 0.143986,2.426849c-1.251244,0 -3.667988,-1.397598 -5.370583,-3.105789c-2.783691,-2.792801 -3.560009,-2.639938 -7.703156,1.516769c-2.53413,2.542419 -5.325314,4.382523 -6.20256,4.089111c-0.877327,-0.293381 -1.381807,3.094574 -1.121017,7.528809c0.566462,9.631226 -1.142868,11.907349 -6.446535,8.58432c-2.725367,-1.707596 -3.939875,-1.781494 -3.939875,-0.2397c0,1.225861 1.701809,2.675308 3.781792,3.221024c2.079981,0.545715 4.954163,3.189957 6.387037,5.876129c2.187178,4.100098 3.925722,4.80304 10.832594,4.37999c6.192558,-0.379318 8.227268,0.246292 8.227268,2.529602c0,2.078247 -2.063087,3.02742 -6.551201,3.014023c-3.603268,-0.010757 -6.551308,0.573135 -6.551308,1.297531c0,0.724396 -2.26775,1.888123 -5.039404,2.586044c-2.771708,0.697922 -5.039484,2.13916 -5.039484,3.202744c0,1.220108 -1.908243,1.205887 -5.170649,-0.038544c-6.826325,-2.603851 -6.714558,-2.656921 -5.429716,2.578033c0.614239,2.50267 0.421328,3.911102 -0.428741,3.129852c-2.506923,-2.304169 -7.317596,3.946411 -6.884808,8.945648c0.911136,10.525757 -0.156124,13.709702 -4.595598,13.709702c-7.210528,0 -2.538147,2.390457 5.746482,2.939957c10.310124,0.683853 12.750916,1.491089 17.099038,5.655106c2.032518,1.946533 5.056166,3.539139 6.719206,3.539139c1.663067,0 3.081188,1.137589 3.151447,2.527954c0.070282,1.390381 0.908443,0.587967 1.862633,-1.783157c1.923649,-4.780365 14.071995,-7.426254 21.19099,-4.615372c2.217308,0.875504 2.897678,1.649521 1.511826,1.720016c-1.38583,0.070511 -2.519718,1.948334 -2.519718,4.172928c0,2.224609 -0.92437,4.044739 -2.054161,4.044739c-1.181583,0 -1.555683,-2.362534 -0.880642,-5.561523c0.97805,-4.635376 0.799969,-4.972137 -1.06966,-2.022354c-1.233749,1.946533 -3.612274,3.539139 -5.285629,3.539139c-1.673378,0 -2.482849,0.908478 -1.798851,2.018829c0.684025,1.110352 -0.169571,4.043045 -1.896835,6.51709c-3.767017,5.395828 -4.084854,8.467346 -0.656143,6.34137c3.445057,-2.136154 10.21452,-2.536331 12.634007,-0.746872c4.653114,3.44133 12.684887,4.035126 13.837025,1.022949c0.635155,-1.660522 0.258858,-3.01915 -0.836151,-3.01915c-2.319344,0 -0.182861,-10.524368 2.496086,-12.295898c0.975571,-0.645081 1.192368,-2.692734 0.481873,-4.550339c-0.954842,-2.49646 -0.183929,-3.377441 2.955376,-3.377441c2.335968,0 4.247215,0.96376 4.247215,2.141708c0,1.177963 -0.907089,1.579269 -2.015755,0.89183c-3.995125,-2.477173 -1.915871,4.629211 2.146812,7.337219c4.899597,3.26593 3.464348,9.852921 -2.146812,9.852921c-1.980148,0 -4.169128,1.487396 -4.864487,3.305313c-1.078667,2.82019 -0.074875,3.145248 6.839561,2.214798c9.630486,-1.295929 10.470612,0.530899 1.978531,4.302185c-4.961235,2.203217 -5.674553,3.265121 -3.753334,5.587524c1.862946,2.252136 1.555321,3.800674 -1.433922,7.217087c-3.437843,3.929169 -3.464714,4.224945 -0.278206,3.059113c2.342293,-0.856964 3.527611,-0.292633 3.527611,1.679413c0,1.633575 0.907112,2.970093 2.015755,2.970093c1.108696,0 2.015808,-0.82486 2.015808,-1.833038c0,-1.008148 1.928848,-1.326935 4.286484,-0.708435c2.771004,0.72702 4.944397,-0.054871 6.147446,-2.2117c2.471779,-4.431274 5.692253,-4.249176 5.692253,0.321899c0,2.012024 1.42794,5.424774 3.173271,7.583893c3.090668,3.823517 3.147766,3.80603 2.191963,-0.672729c-0.594971,-2.787994 -0.058693,-4.485107 1.362175,-4.310699c5.778931,0.709381 9.39875,-0.402924 9.39875,-2.888031c0,-1.483093 1.133942,-2.819702 2.519745,-2.970306c5.903984,-0.64151 16.701019,-1.996582 17.537231,-2.200958c0.498917,-0.121948 -0.181427,-1.313812 -1.511795,-2.648575c-3.325012,-3.335861 -3.039444,-7.684998 0.504547,-7.684998c1.60791,0 3.848114,-1.592606 4.978104,-3.539154c1.93663,-3.33577 2.058182,-3.327942 2.115967,0.136292c0.045761,2.746033 1.080704,3.3508 4.092804,2.391678c2.573822,-0.81955 4.03157,-0.363419 4.03157,1.261429c0,1.418488 1.310165,0.807388 2.959549,-1.380478c5.334793,-7.076279 3.601288,1.564316 -2.908478,14.497162c-5.197647,10.32605 -6.070175,14.471558 -6.551224,31.125183l-0.555054,19.212524l14.873917,0.599426c14.667908,0.591125 14.855621,0.535126 13.552368,-4.044708zm-85.825523,-55.051697c2.711426,-2.72023 4.727882,0.035049 3.11393,4.2547c-1.158066,3.02771 -1.642128,3.1203 -3.188759,0.609711c-1.099815,-1.785416 -1.07016,-3.715652 0.074829,-4.86441zm11.909958,3.100006c-2.811287,4.563629 -4.456497,0.373611 -2.971542,-7.567871c0.923302,-4.937744 1.963051,-6.639771 3.013992,-4.933777c0.984314,1.597839 3.259789,2.077332 5.887566,1.240555c4.95137,-1.576645 5.678627,1.296295 1.259544,4.9758c-1.66301,1.384689 -3.095238,3.99881 -3.1828,5.809128c-0.117279,2.425934 -0.446495,2.566559 -1.251839,0.534744c-0.906677,-2.287216 -1.375885,-2.297195 -2.754921,-0.058578zm11.859436,-6.72348c1.44648,-1.451172 2.385368,-1.570572 2.385368,-0.30336c0,2.699417 -2.383904,5.091095 -3.729218,3.741379c-0.5728,-0.574677 0.031906,-2.12178 1.343849,-3.438019zm8.936623,1.066483c1.94017,-0.508682 3.527603,-2.75412 3.527603,-4.989853c0,-5.397186 4.849106,-3.697678 5.683563,1.992004c0.556168,3.791901 -0.270065,4.359863 -6.047325,4.157318c-3.68026,-0.129013 -5.104019,-0.650803 -3.163841,-1.15947zm74.079712,-11.147385c0,-0.862885 1.472549,-3.294357 3.272354,-5.40329c3.022644,-3.541733 3.561096,-3.586365 7.055206,-0.584839c4.71283,4.048462 4.779526,5.86116 0.255203,6.93985c-5.351761,1.27597 -10.582764,0.805542 -10.582764,-0.951721zm35.280762,-5.327545c1.441574,-1.44632 7.050461,1.4702 7.050461,3.666077c0,1.331055 -1.446243,1.196854 -3.939896,-0.365555c-2.166977,-1.357697 -3.566696,-2.842941 -3.110565,-3.300522zm-128.384338,4.353287c1.455147,-0.584198 3.193741,-0.51236 3.863564,0.159653c0.669846,0.672028 -0.520721,1.149994 -2.645683,1.06218c-2.34832,-0.097031 -2.825966,-0.576248 -1.21788,-1.221832zm-10.915771,-5.696335c2.1035,-1.597443 4.815659,-2.289917 6.026985,-1.538803c1.271339,0.7883 0.08062,1.95813 -2.816719,2.767151c-7.268776,2.0298 -7.422913,1.970825 -3.210266,-1.228348zm118.465698,-5.198517c-2.659256,-0.112518 -2.519104,-0.486267 0.67189,-1.792755c4.75885,-1.948364 8.18779,0.482651 5.905792,4.187027c-1.206268,1.958115 -1.804733,2.001862 -2.41127,0.176224c-0.443756,-1.335602 -2.318604,-2.49231 -4.166412,-2.570496zm-24.98317,-3.077377c0.703812,-3.694 1.480133,-4.46051 2.628815,-2.595779c0.900406,1.461655 0.668854,3.807999 -0.517273,5.241882c-3.000153,3.62677 -3.247681,3.316559 -2.111542,-2.646103zm-94.262863,-3.846024c-2.25412,-1.397659 -1.658974,-8.22197 0.922592,-10.578064c0.948051,-0.86528 0.948418,-0.208389 0.000946,1.464661c-1.463348,2.583923 -1.228142,2.635178 1.58709,0.345825c2.413322,-1.962601 4.285225,-2.115585 6.938148,-0.567078c1.99826,1.166336 2.499298,2.1483 1.113419,2.182114c-3.939827,0.096161 -2.953392,6.124802 1.007912,6.159576c2.859123,0.025101 2.987175,0.374191 0.675781,1.842072c-2.870529,1.822952 -8.574326,1.42746 -12.245888,-0.849106zm71.516449,-8.730652c1.13028,-2.919952 1.715698,-2.683716 4.029678,1.626022c2.007065,3.738113 2.107193,5.414429 0.387161,6.480972c-3.042343,1.886414 -6.107346,-3.73941 -4.41684,-8.106995zm-25.174225,5.820633c0,-3.530502 -6.611832,-7.656525 -10.582825,-6.60408c-2.781006,0.737045 -1.551483,-7.160522 1.511826,-9.711166c2.089066,-1.739441 3.023666,-1.815979 3.023666,-0.24762c0,1.248489 1.392548,2.269989 3.094559,2.269989c2.516586,0 2.672531,0.791275 0.834885,4.236115c-2.058029,3.858017 -1.839401,4.106354 2.448807,2.782318c2.589645,-0.799576 4.06012,-0.766037 3.267593,0.074539c-0.79248,0.840576 -0.59761,3.109146 0.433029,5.04126c1.862,3.490524 0.86322,6.067093 -2.351715,6.067093c-0.923935,0 -1.679825,-1.758804 -1.679825,-3.908447zm-90.032497,-1.653061c0.503414,-0.834229 -0.410881,-2.747162 -2.031734,-4.250961c-2.507626,-2.326492 -3.112309,-2.100327 -4.055115,1.516769c-0.802734,3.079803 -2.709282,4.250977 -6.920235,4.250977c-6.409149,0 -7.423777,-2.207642 -2.788572,-6.067108c1.66304,-1.384705 3.023672,-1.927795 3.023672,-1.206894c0,0.720917 2.721294,-0.101089 6.047325,-1.826675c3.768215,-1.954971 6.047321,-2.310669 6.047321,-0.943756c0,1.206512 0.829651,1.679245 1.843601,1.050522c1.013973,-0.628738 2.30302,0.000107 2.864521,1.397415c0.561527,1.397308 1.092506,0.492905 1.180073,-2.009766c0.127666,-3.651199 1.330555,-4.550339 6.087502,-4.550339c6.298294,0 9.913467,-3.009109 5.674946,-4.723526c-1.527725,-0.61792 -1.13287,-1.087585 0.995255,-1.183914c1.940174,-0.087814 3.527607,0.665207 3.527607,1.67337c0,1.008179 1.827675,1.353531 4.061539,0.767471c3.00219,-0.787674 3.761086,-0.280136 2.909607,1.945908c-0.756706,1.97847 0.431145,3.426819 3.462914,4.222229c7.147659,1.875275 1.810158,5.531311 -9.148247,6.266312c-7.095528,0.475891 -9.348892,-0.077179 -9.348892,-2.294617c0,-2.084015 -1.87822,-1.436523 -6.551281,2.258438c-6.833088,5.402908 -8.4207,6.258362 -6.881805,3.708145zm67.85899,-8.595078c0,-1.112289 1.414154,-2.022369 3.142616,-2.022369c1.728439,0 2.582039,0.91008 1.896812,2.022369c-1.611977,2.61676 -5.039429,2.61676 -5.039429,0zm-24.189293,-1.130539c0,-0.490509 1.414185,-0.89183 3.142624,-0.89183c1.728439,0 2.572845,0.924911 1.876472,2.055359c-1.150627,1.867828 -5.019096,0.971039 -5.019096,-1.163528zm128.320091,-1.548401c-0.729507,0.731888 -1.326355,0.322662 -1.326355,-0.909378c0,-3.853088 3.932846,-4.889099 6.97467,-1.837296c3.359009,3.370026 1.644974,6.384293 -1.935272,3.403244c-1.312637,-1.092987 -2.983536,-1.388458 -3.713043,-0.65657zm-45.67334,-0.354614c0,-1.668442 0.907089,-3.033554 2.015732,-3.033554c1.108673,0 2.015778,1.365112 2.015778,3.033554c0,1.668457 -0.907104,3.033554 -2.015778,3.033554c-1.108643,0 -2.015732,-1.365097 -2.015732,-3.033554zm-69.112213,-1.042694c1.20652,-4.628891 4.60743,-7.505173 4.60743,-3.896698c0,1.381927 1.688286,1.934647 4.031509,1.31987c4.969101,-1.303696 5.303749,1.663956 0.50399,4.468719c-6.07119,3.547729 -10.331009,2.66626 -9.142929,-1.891891zm-50.196457,-5.39473c1.45517,-0.584198 3.193741,-0.51236 3.863586,0.159653c0.669849,0.672028 -0.520744,1.150009 -2.64571,1.062195c-2.348267,-0.097046 -2.825855,-0.576248 -1.217876,-1.221848zm58.835396,-4.685593c0,-1.112305 0.960693,-2.022369 2.134735,-2.022369c1.174118,0 1.574142,0.910065 0.888939,2.022369c-1.596329,2.591431 -3.023674,2.591431 -3.023674,0zm13.732491,-1.381516c1.455124,-0.584213 3.19371,-0.51236 3.863541,0.159668c0.669846,0.672012 -0.520721,1.149994 -2.645714,1.06218c-2.34819,-0.097031 -2.825859,-0.576248 -1.217827,-1.221848zm91.087769,-5.913162c0,-0.437134 1.360641,-0.7948 3.023682,-0.7948c1.662979,0 3.023636,0.8815 3.023636,1.958893c0,1.077393 -1.360657,1.435059 -3.023636,0.794815c-1.66304,-0.640244 -3.023682,-1.521759 -3.023682,-1.958908zm-139.931374,2.022369c-3.268669,-1.258377 -4.592697,-5.245392 -1.439323,-4.333939c0.962044,0.278061 3.57943,-1.740067 5.816246,-4.484741c3.493065,-4.285995 4.526405,-4.607849 7.32177,-2.28035c4.5355,3.776428 4.072662,5.615051 -1.784729,7.089966c-2.771706,0.697922 -5.039429,2.161682 -5.039429,3.252792c0,2.317734 -0.583588,2.408264 -4.874535,0.756271zm133.506065,-2.176315c1.455139,-0.584198 3.193771,-0.512344 3.863586,0.159668c0.669846,0.672012 -0.520721,1.149994 -2.645706,1.06218c-2.348251,-0.097031 -2.825912,-0.576263 -1.21788,-1.221848zm-75.431107,-8.224747c-4.326035,-5.717468 -3.636841,-9.149872 1.225479,-6.103363c2.217331,1.389282 4.03154,4.127213 4.03154,6.084244c0,4.520508 -1.846085,4.527222 -5.257019,0.019119zm19.710632,-4.385284c-0.589157,-4.010101 -0.187912,-4.268707 3.527603,-2.273743c5.090759,2.733383 5.57132,8.017166 0.664703,7.308197c-1.940201,-0.280319 -3.826752,-2.545837 -4.192307,-5.034454zm72.224625,0.726791c0,-1.734116 0.921906,-2.581299 2.048676,-1.882645c1.126785,0.698654 1.52681,2.117477 0.888947,3.152924c-1.728058,2.805115 -2.937622,2.282059 -2.937622,-1.270279zm-19.359802,-2.366486c0.66983,-0.672012 1.14621,0.522446 1.058762,2.654373c-0.096786,2.355942 -0.574432,2.835159 -1.21788,1.221848c-0.582336,-1.4599 -0.510696,-3.204208 0.159119,-3.876221zm-11.884674,1.47464c0.685242,-1.112305 2.779694,-2.008438 4.654495,-1.991394c2.937515,0.026688 2.990723,0.30191 0.384979,1.991394c-3.947647,2.559509 -6.616135,2.559509 -5.039474,0zm-37.291779,-7.946106c0,-2.085281 1.160736,-1.678436 4.031509,1.413101c5.152542,5.54866 5.152542,7.269623 0,4.04129c-2.217361,-1.389282 -4.031509,-3.843765 -4.031509,-5.454391zm-58.457436,-0.143372c0,-1.112305 1.58741,-2.008438 3.527557,-1.991394c3.014717,0.026459 3.087952,0.31601 0.50396,1.991394c-3.804169,2.466507 -4.031517,2.466507 -4.031517,0zm114.899086,-4.164093c0,-1.177933 0.907043,-1.579269 2.015762,-0.89183c2.582977,1.601593 2.582977,3.033569 0,3.033569c-1.108719,0 -2.015762,-0.963791 -2.015762,-2.141739zm-97.553307,-12.358536c0.980042,-1.590897 0.35862,-1.942978 -1.896835,-1.074661c-3.476357,1.338364 -4.528732,-1.949554 -1.811646,-5.659958c2.087425,-2.85054 9.482483,-2.396927 13.344215,0.818542c4.688126,3.903488 4.028381,5.87355 -2.288292,6.833588c-3.048843,0.463379 -6.277283,0.978867 -7.174164,1.145523c-0.896957,0.166656 -0.974937,-0.761703 -0.173279,-2.063034zm33.048561,-5.723434c0,-1.112305 0.907059,-2.022354 2.015747,-2.022354c1.108673,0 2.015762,0.910049 2.015762,2.022354c0,1.112305 -0.907089,2.022369 -2.015762,2.022369c-1.108688,0 -2.015747,-0.910065 -2.015747,-2.022369zm62.488922,-3.808853c0,-1.934708 8.329117,-4.687897 9.779587,-3.232666c0.675034,0.677246 -5.489899,3.927979 -9.275604,4.890976c-0.277191,0.070496 -0.503983,-0.675751 -0.503983,-1.65831zm-65.604248,-10.396935c-6.386124,-3.428917 -6.434723,-6.48497 -0.064529,-4.055092c3.572723,1.362801 5.527512,1.083969 7.28363,-1.038971c1.32019,-1.595917 3.204681,-2.402946 4.187668,-1.793396c2.967331,1.839905 2.018906,4.568016 -2.037064,5.859558c-2.135208,0.679901 -3.598572,2.750015 -3.313004,4.686615c0.281387,1.907837 0.146912,2.462845 -0.298676,1.233353c-0.445633,-1.229492 -3.036774,-3.430923 -5.758026,-4.892067zm-32.636093,-8.54586c0.377411,-6.090942 3.112885,-7.631058 9.337036,-5.256889c10.746353,4.099136 8.47171,9.332619 -4.200905,9.665077c-4.395844,0.115334 -5.364891,-0.716377 -5.136131,-4.408188zm-9.603493,2.527962c-0.685196,-1.112305 0.675438,-2.022362 3.023651,-2.022362c2.348183,0 3.70887,0.910057 3.023674,2.022362c-1.596413,2.591438 -4.450989,2.591438 -6.047325,0zm-45.354927,-6.186462c0,-1.17794 0.907089,-1.579269 2.015759,-0.89183c2.582973,1.601601 2.582973,3.033562 0,3.033562c-1.108669,0 -2.015759,-0.963783 -2.015759,-2.141731zm133.041092,-1.903008c0,-1.112305 0.907028,-2.022369 2.015778,-2.022369c1.108643,0 2.015732,0.910065 2.015732,2.022369c0,1.112297 -0.907089,2.022369 -2.015732,2.022369c-1.108749,0 -2.015778,-0.910072 -2.015778,-2.022369zm-42.331253,0c0,-1.112305 0.960632,-2.022369 2.13472,-2.022369c1.174118,0 1.574142,0.910065 0.888947,2.022369c-1.59639,2.591431 -3.023666,2.591431 -3.023666,0zm-2.494339,-18.630577c-1.20639,-3.630951 0.676239,-11.704941 2.729309,-11.704941c0.979431,0 1.780777,-0.91008 1.780777,-2.022369c0,-1.11232 -0.680313,-1.914604 -1.511841,-1.78289c-0.831482,0.131737 -2.872437,0.11779 -4.535477,-0.03096c-2.480392,-0.22187 -2.530838,-0.58374 -0.280792,-2.013985c3.097397,-1.968897 10.35965,-0.621561 10.35965,1.921974c0,0.916931 -0.817017,2.173737 -1.815567,2.792915c-0.998596,0.619179 -1.520325,4.313156 -1.15947,8.208832c0.454193,4.902954 -0.176147,7.083054 -2.047974,7.083054c-1.487274,0 -3.070633,-1.103233 -3.518616,-2.45163zm-62.871017,0.190094c0.841141,-1.365395 8.923668,-0.03978 8.923668,1.46357c0,0.413956 -2.202377,0.569786 -4.894142,0.346291c-2.691765,-0.223511 -4.505028,-1.037949 -4.029526,-1.80986zm37.144493,-9.872658c0,-2.625771 5.437737,-2.625771 7.055214,0c0.685196,1.112289 -0.621933,2.022354 -2.904724,2.022354c-2.282761,0 -4.15049,-0.910065 -4.15049,-2.022354z"/>
 </g>
</svg>