<?xml version="1.0" encoding="UTF-8" standalone="no"?>
<!-- Created with Inkscape (http://www.inkscape.org/) -->

<svg
   xmlns:dc="http://purl.org/dc/elements/1.1/"
   xmlns:cc="http://creativecommons.org/ns#"
   xmlns:rdf="http://www.w3.org/1999/02/22-rdf-syntax-ns#"
   xmlns:svg="http://www.w3.org/2000/svg"
   xmlns="http://www.w3.org/2000/svg"
   xmlns:sodipodi="http://sodipodi.sourceforge.net/DTD/sodipodi-0.dtd"
   xmlns:inkscape="http://www.inkscape.org/namespaces/inkscape"
   width="35.692192"
   height="35.692192"
   id="svg4374"
   version="1.1"
   inkscape:version="0.48.4 r9939"
   sodipodi:docname="code-emblem-hover.svg">
  <defs
     id="defs4376" />
  <sodipodi:namedview
     id="base"
     pagecolor="#ffffff"
     bordercolor="#666666"
     borderopacity="1.0"
     inkscape:pageopacity="0.0"
     inkscape:pageshadow="2"
     inkscape:zoom="5.6"
     inkscape:cx="-69.148651"
     inkscape:cy="-14.388184"
     inkscape:document-units="px"
     inkscape:current-layer="layer1"
     showgrid="false"
     fit-margin-top="0"
     fit-margin-left="0"
     fit-margin-right="0"
     fit-margin-bottom="0"
     inkscape:window-width="1920"
     inkscape:window-height="1018"
     inkscape:window-x="-8"
     inkscape:window-y="-8"
     inkscape:window-maximized="1" />
  <metadata
     id="metadata4379">
    <rdf:RDF>
      <cc:Work
         rdf:about="">
        <dc:format>image/svg+xml</dc:format>
        <dc:type
           rdf:resource="http://purl.org/dc/dcmitype/StillImage" />
        <dc:title />
      </cc:Work>
    </rdf:RDF>
  </metadata>
  <g
     inkscape:label="Layer 1"
     inkscape:groupmode="layer"
     id="layer1"
     transform="translate(-359.03355,-512.64253)">
    <path
       sodipodi:type="arc"
       style="fill:#f8f8ff;fill-opacity:0.39215687;stroke:#1e1c00;stroke-width:6.98193311999999990;stroke-miterlimit:4;stroke-opacity:1;stroke-dasharray:none"
       id="path2995"
       sodipodi:cx="95.226089"
       sodipodi:cy="117.51305"
       sodipodi:rx="28.365217"
       sodipodi:ry="28.365217"
       d="m 123.59131,117.51305 c 0,15.66567 -12.69954,28.36521 -28.365221,28.36521 -15.665676,0 -28.365217,-12.69954 -28.365217,-28.36521 0,-15.66568 12.699541,-28.365221 28.365217,-28.365221 15.665681,0 28.365221,12.699541 28.365221,28.365221 z"
       transform="matrix(0.56015209,0,0,0.56015209,323.53391,464.662)" />
    <path
       style="fill:none;stroke:#921917;stroke-width:2.79353189000000010;stroke-linecap:butt;stroke-linejoin:miter;stroke-miterlimit:4;stroke-opacity:1;stroke-dasharray:none"
       d="m 375.16621,541.04473 c -2.24585,-3.2e-4 -3.63831,-0.96108 -3.52737,-3.10408 -0.11923,-1.34718 -0.0717,-2.71547 -0.1411,-3.10409 0.10861,-0.92458 -3.85508,-3.54579 -2.15818,-4.78244 l 1.9251,-2.20106 c 0.7261,-1.57627 -0.62165,-3.89794 0.35275,-5.64447 0.40182,-1.00577 1.69088,-1.27289 2.84332,-1.34039"
       id="path4407"
       inkscape:connector-curvature="0"
       sodipodi:nodetypes="ccccccc" />
    <path
       style="fill:none;stroke:#921917;stroke-width:2.79353189000000010;stroke-linecap:butt;stroke-linejoin:miter;stroke-miterlimit:4;stroke-opacity:1;stroke-dasharray:none"
       d="m 378.50656,541.04473 c 2.24584,-3.4e-4 3.6383,-0.96108 3.52737,-3.10408 0.11922,-1.34718 0.0717,-2.71548 0.14109,-3.10409 -0.10861,-0.92459 3.8551,-3.54579 2.15818,-4.78246 l -1.9251,-2.20104 c -0.72609,-1.57627 0.62165,-3.89795 -0.35274,-5.64447 -0.40182,-1.00578 -1.69088,-1.2729 -2.84332,-1.3404"
       id="path4407-9"
       inkscape:connector-curvature="0"
       sodipodi:nodetypes="ccccccc" />
  </g>
</svg>
