<?xml version="1.0" encoding="UTF-8" standalone="no"?>
<!-- Created with Inkscape (http://www.inkscape.org/) -->

<svg
   xmlns:dc="http://purl.org/dc/elements/1.1/"
   xmlns:cc="http://creativecommons.org/ns#"
   xmlns:rdf="http://www.w3.org/1999/02/22-rdf-syntax-ns#"
   xmlns:svg="http://www.w3.org/2000/svg"
   xmlns="http://www.w3.org/2000/svg"
   xmlns:sodipodi="http://sodipodi.sourceforge.net/DTD/sodipodi-0.dtd"
   xmlns:inkscape="http://www.inkscape.org/namespaces/inkscape"
   width="31.941816"
   height="31.941816"
   id="svg4374"
   version="1.1"
   inkscape:version="0.48.4 r9939"
   sodipodi:docname="New document 10">
  <defs
     id="defs4376" />
  <sodipodi:namedview
     id="base"
     pagecolor="#ffffff"
     bordercolor="#666666"
     borderopacity="1.0"
     inkscape:pageopacity="0.0"
     inkscape:pageshadow="2"
     inkscape:zoom="3.959798"
     inkscape:cx="-63.774395"
     inkscape:cy="54.457109"
     inkscape:document-units="px"
     inkscape:current-layer="layer1"
     showgrid="false"
     fit-margin-top="0"
     fit-margin-left="0"
     fit-margin-right="0"
     fit-margin-bottom="0"
     inkscape:window-width="1591"
     inkscape:window-height="791"
     inkscape:window-x="150"
     inkscape:window-y="150"
     inkscape:window-maximized="0" />
  <metadata
     id="metadata4379">
    <rdf:RDF>
      <cc:Work
         rdf:about="">
        <dc:format>image/svg+xml</dc:format>
        <dc:type
           rdf:resource="http://purl.org/dc/dcmitype/StillImage" />
        <dc:title></dc:title>
      </cc:Work>
    </rdf:RDF>
  </metadata>
  <g
     inkscape:label="Layer 1"
     inkscape:groupmode="layer"
     id="layer1"
     transform="translate(-359.03325,-516.39257)">
    <path
       sodipodi:type="arc"
       style="fill:#a6101e;fill-opacity:0;stroke:#1e1c00;stroke-width:6.98193312;stroke-miterlimit:4;stroke-opacity:1;stroke-dasharray:none"
       id="path2995"
       sodipodi:cx="95.226089"
       sodipodi:cy="117.51305"
       sodipodi:rx="28.365217"
       sodipodi:ry="28.365217"
       d="m 123.59131,117.51305 c 0,15.66567 -12.69954,28.36521 -28.365221,28.36521 -15.665676,0 -28.365217,-12.69954 -28.365217,-28.36521 0,-15.66568 12.699541,-28.365221 28.365217,-28.365221 15.665681,0 28.365221,12.699541 28.365221,28.365221 z"
       transform="matrix(0.50129382,0,0,0.50129382,327.26375,473.45362)" />
    <path
       style="fill:none;stroke:#c83e33;stroke-width:2;stroke-linecap:butt;stroke-linejoin:miter;stroke-opacity:1;stroke-miterlimit:4;stroke-dasharray:none"
       d="m 373.47076,542.1472 c -2.00986,-2.9e-4 -3.25601,-0.86009 -3.15673,-2.77792 -0.1067,-1.20562 -0.0642,-2.43014 -0.12627,-2.77792 0.0972,-0.82743 -3.45001,-3.17322 -1.93141,-4.27993 l 1.72282,-1.96978 c 0.6498,-1.41064 -0.55633,-3.48836 0.31568,-5.05137 0.3596,-0.90009 1.51321,-1.13914 2.54456,-1.19955"
       id="path4407"
       inkscape:connector-curvature="0"
       sodipodi:nodetypes="ccccccc" />
    <path
       style="fill:none;stroke:#c83e33;stroke-width:2;stroke-linecap:butt;stroke-linejoin:miter;stroke-miterlimit:4;stroke-opacity:1;stroke-dasharray:none"
       d="m 376.46012,542.21033 c 2.00986,-3e-4 3.25601,-0.86009 3.15673,-2.77792 0.1067,-1.20562 0.0642,-2.43015 0.12627,-2.77792 -0.0972,-0.82744 3.45002,-3.17322 1.93141,-4.27994 l -1.72282,-1.96977 c -0.6498,-1.41064 0.55633,-3.48837 -0.31568,-5.05137 -0.3596,-0.9001 -1.51321,-1.13915 -2.54456,-1.19956"
       id="path4407-9"
       inkscape:connector-curvature="0"
       sodipodi:nodetypes="ccccccc" />
  </g>
</svg>
