<?xml version="1.0" encoding="UTF-8" standalone="no"?>
<!-- Created with Inkscape (http://www.inkscape.org/) -->

<svg
   xmlns:dc="http://purl.org/dc/elements/1.1/"
   xmlns:cc="http://creativecommons.org/ns#"
   xmlns:rdf="http://www.w3.org/1999/02/22-rdf-syntax-ns#"
   xmlns:svg="http://www.w3.org/2000/svg"
   xmlns="http://www.w3.org/2000/svg"
   xmlns:sodipodi="http://sodipodi.sourceforge.net/DTD/sodipodi-0.dtd"
   xmlns:inkscape="http://www.inkscape.org/namespaces/inkscape"
   width="240"
   height="240"
   id="svg3032"
   version="1.1"
   inkscape:version="0.48.4 r9939"
   sodipodi:docname="emblem.svgz">
  <defs
     id="defs3034" />
  <sodipodi:namedview
     id="base"
     pagecolor="#ffffff"
     bordercolor="#666666"
     borderopacity="1.0"
     inkscape:pageopacity="0.0"
     inkscape:pageshadow="2"
     inkscape:zoom="1.979899"
     inkscape:cx="107.78956"
     inkscape:cy="113.17628"
     inkscape:document-units="px"
     inkscape:current-layer="layer1"
     showgrid="false"
     guidetolerance="10000"
     inkscape:window-width="1920"
     inkscape:window-height="1018"
     inkscape:window-x="-8"
     inkscape:window-y="-8"
     inkscape:window-maximized="1" />
  <metadata
     id="metadata3037">
    <rdf:RDF>
      <cc:Work
         rdf:about="">
        <dc:format>image/svg+xml</dc:format>
        <dc:type
           rdf:resource="http://purl.org/dc/dcmitype/StillImage" />
        <dc:title></dc:title>
      </cc:Work>
    </rdf:RDF>
  </metadata>
  <g
     inkscape:label="Layer 1"
     inkscape:groupmode="layer"
     id="layer1"
     transform="translate(0,-812.36218)">
    <polygon
       transform="matrix(1.0908808,0,0,1.1022667,-726.52661,681.01514)"
       points="675.025,213.476 670.429,197.002 683.192,185.62 683.452,168.521 698.91,161.204 703.964,144.866 720.853,142.178 730.292,127.917 747.253,130.105 760.347,119.106 776,126 791.653,119.106 804.748,130.106 821.708,127.917 831.148,142.178 848.037,144.867 853.091,161.205 868.549,168.521 868.808,185.62 881.571,197.003 876.975,213.476 886,228 876.975,242.524 881.57,258.998 868.808,270.38 868.548,287.479 853.09,294.796 848.036,311.134 831.147,313.822 821.708,328.083 804.747,325.895 791.653,336.894 776,330 760.347,336.894 747.252,325.894 730.292,328.083 720.852,313.822 703.963,311.133 698.909,294.795 683.451,287.479 683.192,270.38 670.429,258.997 675.025,242.524 666,228 "
       id="polygon5613"
       style="fill:#333333" />
    <path
       style="fill:#efefe3;fill-opacity:1"
       inkscape:connector-curvature="0"
       d="m 119.99686,1033.1894 c -55.038222,0 -99.815608,-45.24476 -99.815608,-100.85745 0,-55.61267 44.777386,-100.8574 99.815608,-100.8574 55.03821,0 99.81559,45.24473 99.81559,100.8574 0,55.61269 -44.77738,100.85745 -99.81559,100.85745 z m 0,-198.40806 c -53.233906,0 -96.542966,43.76109 -96.542966,97.55061 0,53.78953 43.30906,97.55055 96.542966,97.55055 53.23389,0 96.54295,-43.76102 96.54295,-97.55055 0,-53.78952 -43.30906,-97.55061 -96.54295,-97.55061 z"
       id="path5615" />
    <path
       style="fill:#efefe3;fill-opacity:1"
       inkscape:connector-curvature="0"
       d="m 119.99686,1019.9622 c -47.820956,0 -86.725039,-39.31127 -86.725039,-87.63025 0,-48.31897 38.904083,-87.6302 86.725039,-87.6302 47.82094,0 86.72502,39.31123 86.72502,87.6302 0,48.31898 -38.90408,87.63025 -86.72502,87.63025 z m 0,-171.95366 c -46.016639,0 -83.452396,37.8276 -83.452396,84.32341 0,46.49583 37.435757,84.32335 83.452396,84.32335 46.01662,0 83.45238,-37.82752 83.45238,-84.32335 0,-46.49581 -37.43576,-84.32341 -83.45238,-84.32341 z"
       id="path5617" />
    <path
       style="fill:#efefe3;fill-opacity:1"
       inkscape:connector-curvature="0"
       d="m 120.04922,1025.4734 c -0.91306,0 -1.83049,-0.013 -2.7403,-0.039 l 0.0316,-1.1021 c 0.89888,0.025 1.79013,0.04 2.70756,0.038 0.90107,0 1.79669,-0.014 2.6912,-0.041 l 0.0316,1.1022 c -0.90325,0.027 -1.80977,0.041 -2.72175,0.041 z m -8.19142,-0.3582 c -1.8054,-0.1598 -3.63047,-0.3758 -5.42388,-0.6426 l 0.15928,-1.0901 c 1.77159,0.2634 3.57374,0.4773 5.35951,0.6348 l -0.0949,1.0979 z m 16.3654,-0.011 -0.096,-1.0979 c 1.78577,-0.1597 3.58791,-0.3747 5.3595,-0.6403 l 0.15927,1.09 c -1.79122,0.269 -3.61627,0.4872 -5.42276,0.6482 z m -27.16623,-1.6016 c -1.780315,-0.3759 -3.567175,-0.8091 -5.309315,-1.2885 l 0.28581,-1.0637 c 1.7236,0.4739 3.48864,0.9027 5.248235,1.2742 l -0.22473,1.078 z m 37.96595,-0.018 -0.22364,-1.079 c 1.74977,-0.3715 3.51591,-0.8025 5.24605,-1.2787 l 0.28799,1.0637 c -1.75196,0.4828 -3.53773,0.9182 -5.3104,1.294 z m -48.502765,-2.8769 c -1.719228,-0.5853 -3.445001,-1.2323 -5.12823,-1.9223 l 0.409079,-1.0218 c 1.663594,0.6824 3.369731,1.3206 5.068231,1.9003 l -0.34908,1.0438 z m 59.037395,-0.029 -0.34909,-1.0439 c 1.69633,-0.5797 3.39701,-1.219 5.05733,-1.9014 l 0.41126,1.0218 c -1.68105,0.689 -3.40354,1.336 -5.1195,1.9235 z m -69.171677,-4.1224 c -1.648321,-0.7937 -3.284642,-1.6424 -4.864238,-2.5253 l 0.527987,-0.9645 c 1.56105,0.8719 3.176645,1.7107 4.804238,2.4944 l -0.467987,0.9954 z m 79.278677,-0.028 -0.47125,-0.9943 c 1.6145,-0.7803 3.22791,-1.6181 4.79333,-2.4911 l 0.52798,0.9645 c -1.58505,0.884 -3.21592,1.7327 -4.85006,2.5209 z m -88.850065,-5.3085 c -1.533778,-0.9799 -3.058829,-2.0194 -4.530427,-3.0875 l 0.637074,-0.895 c 1.454144,1.056 2.960649,2.0833 4.476974,3.0511 l -0.583621,0.9314 z m 98.397455,-0.021 -0.58362,-0.9314 c 1.52069,-0.9733 3.02393,-1.9984 4.47043,-3.0489 l 0.63708,0.8951 c -1.46287,1.0625 -2.98575,2.1009 -4.52389,3.0852 z M 61.94017,1004.681 c -1.408328,-1.1552 -2.800291,-2.3677 -4.138801,-3.6044 l 0.737435,-0.8135 c 1.321057,1.2213 2.697747,2.4195 4.089711,3.5614 l -0.688345,0.8565 z m 116.13191,-0.015 -0.68835,-0.8554 c 1.38979,-1.1408 2.7643,-2.339 4.08644,-3.5603 l 0.73744,0.8124 c -1.33742,1.2356 -2.72939,2.4481 -4.13553,3.6033 z M 53.881832,997.23343 c -1.266513,-1.31611 -2.507936,-2.68622 -3.689359,-4.06956 l 0.826887,-0.71979 c 1.166152,1.36791 2.392302,2.7204 3.644635,4.02107 l -0.782163,0.76828 z m 132.245318,-0.0154 -0.78217,-0.76718 c 1.24796,-1.29957 2.47412,-2.65315 3.64463,-4.02327 l 0.82689,0.71978 c -1.18579,1.38666 -2.42612,2.75567 -3.68935,4.07067 z M 46.748562,988.88375 c -1.098516,-1.45058 -2.170852,-2.95738 -3.187553,-4.4774 l 0.903249,-0.61727 c 1.004701,1.50239 2.066128,2.99044 3.151555,4.42449 l -0.867251,0.67018 z m 146.512938,-0.0221 -0.86725,-0.66909 c 1.0887,-1.43845 2.15013,-2.92872 3.15374,-4.4311 l 0.90325,0.61727 c -1.01561,1.52002 -2.08795,3.02793 -3.18974,4.48292 z M 40.640721,979.74817 c -0.922885,-1.57292 -1.810862,-3.19546 -2.642113,-4.82351 l 0.969792,-0.50485 c 0.821434,1.60931 1.699593,3.21312 2.610478,4.76731 l -0.938157,0.56105 z m 158.736259,-0.0375 -0.93925,-0.56215 c 0.91634,-1.56302 1.79559,-3.17013 2.61376,-4.77834 l 0.96978,0.50374 c -0.82907,1.62805 -1.71922,3.25499 -2.64429,4.83675 z M 35.646668,969.95232 c -0.735253,-1.67986 -1.426871,-3.39719 -2.055219,-5.1035 l 1.023247,-0.38469 c 0.620711,1.68648 1.303602,3.38286 2.029038,5.04177 l -0.997066,0.44642 z m 168.728732,-0.0651 -0.99707,-0.44421 c 0.72762,-1.66773 1.4116,-3.37073 2.03231,-5.0605 l 1.02324,0.38359 c -0.62943,1.71071 -1.32214,3.43356 -2.05848,5.12112 z M 31.838404,959.62186 c -0.530168,-1.7548 -1.015609,-3.54598 -1.441053,-5.32284 l 1.061427,-0.25903 c 0.419988,1.75702 0.898885,3.52614 1.42469,5.26002 l -1.045064,0.32185 z m 176.347436,-0.0948 -1.04397,-0.32076 c 0.52253,-1.73497 1.00033,-3.5052 1.41814,-5.26222 l 1.06143,0.25793 c -0.42435,1.77796 -0.90761,3.57024 -1.4356,5.32505 z M 29.271562,948.89902 c -0.320719,-1.80441 -0.591257,-3.64079 -0.803979,-5.45842 l 1.082153,-0.13008 c 0.21054,1.79559 0.477806,3.60992 0.795252,5.3934 l -1.073426,0.1951 z m 181.468028,-0.0981 -1.07342,-0.19399 c 0.31417,-1.77686 0.57926,-3.5912 0.79089,-5.3945 l 1.08215,0.12897 c -0.21272,1.82535 -0.48217,3.66173 -0.79962,5.45952 z M 27.982141,937.89619 c -0.107998,-1.82866 -0.162542,-3.36191 -0.164723,-5.56645 h 1.09088 c 0.0022,2.20454 0.05673,3.66835 0.162542,5.47606 l -1.088699,0.0904 z m 183.762159,-0.0518 -1.22507,-0.065 c 0.10473,-1.8011 0.0218,-3.63416 0.0218,-5.4507 l 0,0 h 1.09088 l 0,0 c -0.001,1.83858 0.21817,3.69479 0.11236,5.51574 z m -182.68437,-10.86724 -1.088698,-0.0639 c 0.103634,-1.82094 0.261811,-3.67055 0.472351,-5.4959 l 1.084335,0.12676 c -0.208358,1.80552 -0.366535,3.63307 -0.467988,5.43308 z m 181.85748,-0.29541 c -0.11019,-1.81102 -0.27273,-3.63859 -0.48436,-5.43087 l 1.08217,-0.13116 c 0.21489,1.81432 0.3807,3.66283 0.49089,5.49479 l -1.0887,0.0673 z m -180.606239,-10.53218 -1.073426,-0.1929 c 0.315264,-1.79449 0.689436,-3.61213 1.112698,-5.4022 l 1.061426,0.25572 c -0.418897,1.76913 -0.789797,3.56473 -1.100698,5.33938 z m 179.320089,-0.2899 c -0.31745,-1.77905 -0.6938,-3.57465 -1.11598,-5.33497 l 1.06144,-0.26013 c 0.42762,1.78236 0.80725,3.5989 1.12906,5.3989 l -1.07452,0.1962 z m -176.8067,-10.31169 -1.043972,-0.31966 c 0.525804,-1.75039 1.113789,-3.51402 1.7465,-5.24128 l 1.023245,0.38249 c -0.626164,1.7063 -1.206513,3.449 -1.725773,5.17845 z m 174.25731,-0.27998 c -0.52035,-1.71843 -1.10506,-3.4545 -1.73668,-5.16191 l 1.02325,-0.38689 c 0.63925,1.72834 1.2305,3.48646 1.75741,5.22584 l -1.04398,0.32296 z M 36.578281,895.30901 35.579035,894.8659 c 0.728708,-1.67214 1.519596,-3.35088 2.349756,-4.98996 l 0.971975,0.50264 c -0.822524,1.62033 -1.603595,3.27924 -2.322485,4.93043 z m 166.732409,-0.24249 c -0.72434,-1.6512 -1.50868,-3.30349 -2.33012,-4.91061 l 0.9698,-0.50593 c 0.83234,1.62694 1.62432,3.29908 2.35739,4.97012 l -0.99707,0.44642 z m -161.802719,-9.46957 -0.939248,-0.56106 c 0.925067,-1.58175 1.906859,-3.15358 2.918106,-4.6703 l 0.905431,0.61616 c -1.001428,1.49799 -1.970131,3.05108 -2.884289,4.6152 z m 156.857759,-0.20393 c -0.91415,-1.55529 -1.88613,-3.10288 -2.88974,-4.60086 l 0.90325,-0.61837 c 1.0167,1.51562 2.00068,3.08304 2.92465,4.65597 l -0.93816,0.56326 z M 47.539451,876.54623 46.6722,875.87826 c 1.100699,-1.45719 2.258124,-2.89897 3.44173,-4.28892 l 0.826887,0.71868 c -1.169424,1.37342 -2.313758,2.79866 -3.401366,4.23821 z m 144.780619,-0.17636 c -1.08979,-1.43626 -2.2363,-2.85818 -3.40791,-4.22609 l 0.82471,-0.72088 c 1.18579,1.38445 2.34539,2.824 3.44827,4.27679 l -0.86507,0.67018 z m -137.737891,-8.08734 -0.784345,-0.76717 c 1.262151,-1.315 2.578844,-2.61017 3.915173,-3.84801 l 0.737436,0.81126 c -1.319967,1.22462 -2.621387,2.50325 -3.868264,3.80392 z m 130.679891,-0.15652 c -1.25233,-1.30067 -2.55811,-2.5771 -3.87808,-3.794 l 0.73526,-0.81347 c 1.33633,1.23124 2.65629,2.52309 3.92499,3.83809 l -0.78217,0.76938 z m -122.728461,-7.21213 -0.688346,-0.85425 c 1.402873,-1.15408 2.860289,-2.2828 4.33407,-3.3553 l 0.637074,0.89504 c -1.455235,1.05817 -2.895198,2.17366 -4.282798,3.31451 z M 177.29101,860.7761 c -1.39415,-1.14195 -2.83956,-2.25413 -4.29479,-3.3079 l 0.63488,-0.89504 c 1.47269,1.06589 2.93447,2.19241 4.34498,3.34758 l -0.68507,0.85536 z m -106.006355,-6.23002 -0.583622,-0.93141 c 1.528324,-0.97991 3.10901,-1.92676 4.692969,-2.81408 l 0.527986,0.96448 c -1.566504,0.8774 -3.126464,1.81212 -4.637333,2.78101 z m 97.230215,-0.12565 c -1.51959,-0.96779 -3.08392,-1.90031 -4.65369,-2.7733 l 0.5258,-0.96558 c 1.58723,0.8829 3.17119,1.82755 4.70824,2.80636 l -0.58035,0.93252 z m -87.802824,-5.1509 -0.471261,-0.99423 c 1.627595,-0.78702 3.305369,-1.53767 4.986416,-2.2299 l 0.411262,1.02071 c -1.66032,0.68341 -3.317368,1.42522 -4.926417,2.20342 z m 78.339434,-0.11132 c -1.62323,-0.7804 -3.289,-1.51892 -4.94823,-2.19681 l 0.40908,-1.0218 c 1.67996,0.68561 3.36427,1.43293 5.00823,2.22326 l -0.46908,0.99535 z m -68.354605,-4.00012 -0.35126,-1.04385 c 1.71923,-0.58972 3.47664,-1.13313 5.22314,-1.61703 l 0.28799,1.06369 c -1.72686,0.47618 -3.46246,1.01409 -5.15987,1.59719 z m 58.334865,-0.0904 c -1.70177,-0.57758 -3.43845,-1.10998 -5.16423,-1.58285 l 0.28581,-1.06368 c 1.74651,0.47728 3.505,1.01629 5.22641,1.60049 l -0.34799,1.04604 z m -47.93113,-2.79203 -0.22581,-1.07912 c 1.77159,-0.37698 3.58027,-0.70656 5.37586,-0.97881 l 0.16145,1.09013 c -1.77487,0.27006 -3.56173,0.59412 -5.3115,0.9678 z m 37.51867,-0.0573 c -1.75523,-0.36816 -3.54318,-0.68782 -5.31476,-0.95016 l 0.15817,-1.09013 c 1.79341,0.26564 3.60319,0.58861 5.37914,0.96117 l -0.22255,1.07912 z m -26.84876,-1.5553 -0.0982,-1.09786 c 1.80322,-0.16314 3.63808,-0.27446 5.45222,-0.32958 l 0.0338,1.10227 c -1.79341,0.054 -3.60645,0.16424 -5.38787,0.32517 z m 16.1734,-0.0254 c -1.78359,-0.15542 -3.59553,-0.26013 -5.38785,-0.30974 l 0.0295,-1.10226 c 1.81413,0.0507 3.64899,0.15653 5.45222,0.31415 l -0.0938,1.09785 z"
       id="path5619" />
    <g
       transform="scale(0.80660512,1.239764)"
       style="font-size:49.9376297px;font-style:normal;font-variant:normal;font-weight:normal;font-stretch:normal;line-height:125%;letter-spacing:0px;word-spacing:0px;fill:#efefe3;fill-opacity:1;stroke:none;font-family:Lucida Sans Typewriter;-inkscape-font-specification:Lucida Sans Typewriter"
       id="text6594">
      <path
         d="m 71.678996,711.33279 12.021119,0 9.997279,23.3595 10.192346,-23.3595 10.85071,0 0,2.24329 -0.46329,0.0244 c -1.67438,0.13008 -2.67005,0.41455 -2.98699,0.85342 -0.31703,0.43894 -0.47552,1.74753 -0.47548,3.92576 l 0,21.96964 c -4e-5,2.17827 0.16251,3.49092 0.48767,3.93795 0.32507,0.44703 1.30854,0.72745 2.95042,0.84123 l 0.46328,0.0244 0,2.26767 -14.14249,0 0,-2.26767 0.46329,-0.0244 c 1.36545,-0.0813 2.1823,-0.34949 2.45055,-0.80466 0.26819,-0.45515 0.4023,-1.77999 0.40233,-3.97452 l 0,-21.40881 -11.265225,24.45676 -2.413977,0 -10.997007,-25.96855 0,22.9206 c -9e-6,2.16201 0.138165,3.47873 0.414521,3.95014 0.276339,0.47142 1.089125,0.74777 2.438361,0.82904 l 0.438905,0.0244 0,2.26767 -10.826322,0 0,-2.26767 0.463289,-0.0244 c 1.641826,-0.11378 2.625297,-0.3942 2.950416,-0.84123 0.32511,-0.44703 0.487667,-1.75968 0.487672,-3.93795 l 0,-21.96964 c -5e-6,-2.17823 -0.158498,-3.48682 -0.47548,-3.92576 -0.316991,-0.43887 -1.304526,-0.72334 -2.962608,-0.85342 l -0.463289,-0.0244 z"
         style="font-weight:600;fill:#efefe3;font-family:Lucida Bright;-inkscape-font-specification:Lucida Bright Semi-Bold"
         id="path3007" />
      <path
         d="m 125.66431,736.44791 -1.82878,3.87699 c -0.89407,1.91818 -1.3411,3.22677 -1.34109,3.92576 -1e-5,0.53645 0.51205,0.80466 1.53616,0.80466 0.1463,0.0163 0.45516,0.0406 0.92658,0.0731 l 0.46329,0.0244 0,2.26767 -9.63153,0 0,-2.26767 0.46329,-0.0244 c 1.30046,-0.0813 2.11731,-0.2926 2.45056,-0.63397 0.33323,-0.34137 1.06068,-1.73123 2.18233,-4.1696 l 13.43537,-29.30909 2.51151,0 13.5329,29.33348 c 1.18663,2.42211 1.94659,3.79571 2.27987,4.12083 0.3332,0.32511 1.18257,0.54457 2.54809,0.65835 l 0.31698,0.0244 0,2.26767 -15.04468,0 0,-2.26767 0.46328,-0.0244 c 2.0482,-0.13004 3.08857,-0.44703 3.12111,-0.95096 0.0325,-0.48767 -0.43081,-1.78 -1.38987,-3.87699 l -1.78,-3.85261 z m 1.12164,-2.41398 12.9477,0 -6.58358,-14.02057 z"
         style="font-weight:600;fill:#efefe3;font-family:Lucida Bright;-inkscape-font-specification:Lucida Bright Semi-Bold"
         id="path3009" />
      <path
         d="m 169.5548,713.72239 -5.87645,0 c -1.51179,3e-5 -2.48307,0.20729 -2.91384,0.62178 -0.43078,0.41455 -0.6543,1.68656 -0.67055,3.81603 l -0.0244,0.68274 -3.60878,0 0,-7.51015 33.69815,0 0,7.51015 -3.60877,0 -0.0244,-0.68274 c -0.0163,-2.12947 -0.2398,-3.40148 -0.67055,-3.81603 -0.4308,-0.41449 -1.40208,-0.62175 -2.91384,-0.62178 l -5.87645,0 0,26.6269 c 0.11377,2.42211 0.30071,3.78759 0.56082,4.09644 0.26007,0.30886 1.43049,0.53644 3.51124,0.68274 l 0.43891,0.0244 0,2.26767 -16.53209,0 0,-2.26767 0.43891,-0.0244 c 1.98319,-0.13004 3.15766,-0.41045 3.52343,-0.84123 0.36574,-0.43077 0.54862,-1.74342 0.54863,-3.93795 z"
         style="font-weight:600;fill:#efefe3;font-family:Lucida Bright;-inkscape-font-specification:Lucida Bright Semi-Bold"
         id="path3011" />
      <path
         d="m 205.2524,713.72239 -5.87645,0 c -1.51179,3e-5 -2.48307,0.20729 -2.91384,0.62178 -0.43078,0.41455 -0.6543,1.68656 -0.67055,3.81603 l -0.0244,0.68274 -3.60878,0 0,-7.51015 33.69815,0 0,7.51015 -3.60877,0 -0.0244,-0.68274 c -0.0163,-2.12947 -0.2398,-3.40148 -0.67055,-3.81603 -0.4308,-0.41449 -1.40208,-0.62175 -2.91384,-0.62178 l -5.87645,0 0,26.6269 c 0.11377,2.42211 0.30071,3.78759 0.56083,4.09644 0.26007,0.30886 1.43048,0.53644 3.51124,0.68274 l 0.4389,0.0244 0,2.26767 -16.53209,0 0,-2.26767 0.43891,-0.0244 c 1.98319,-0.13004 3.15766,-0.41045 3.52343,-0.84123 0.36574,-0.43077 0.54862,-1.74342 0.54863,-3.93795 z"
         style="font-weight:600;fill:#efefe3;font-family:Lucida Bright;-inkscape-font-specification:Lucida Bright Semi-Bold"
         id="path3013" />
    </g>
    <g
       transform="scale(0.75512732,1.32428)"
       style="font-size:31.96673203px;font-style:normal;font-variant:normal;font-weight:normal;font-stretch:normal;line-height:125%;letter-spacing:0px;word-spacing:0px;fill:#efefe3;fill-opacity:1;stroke:none;font-family:Lucida Sans Typewriter;-inkscape-font-specification:Lucida Sans Typewriter"
       id="text6598">
      <path
         d="m 76.5654,725.7072 0,-4.8231 2.310096,0 0.01561,0.37461 c 0.07284,1.36316 0.338186,2.23205 0.796047,2.60666 0.946926,0.77003 2.070755,1.15505 3.371491,1.15505 1.22788,0 2.224238,-0.37982 2.989077,-1.13944 0.764817,-0.75963 1.147231,-1.75338 1.147244,-2.98128 -1.3e-5,-0.96773 -0.223738,-1.74817 -0.671177,-2.34131 -0.447462,-0.58272 -1.311146,-1.22788 -2.591053,-1.93548 l -1.545267,-0.84288 c -3.860569,-2.13318 -5.79085,-4.45368 -5.790849,-6.9615 -10e-7,-1.96669 0.697189,-3.54577 2.091574,-4.73726 1.394377,-1.19144 3.246614,-1.78718 5.556717,-1.7872 1.810604,2e-5 3.881364,0.34341 6.212285,1.03018 l 0,4.6514 -2.325705,0 -0.01561,-0.28095 c -0.08326,-1.4568 -0.296579,-2.36211 -0.639959,-2.71593 -0.770043,-0.7596 -1.737785,-1.13941 -2.903228,-1.13944 -0.988564,3e-5 -1.826233,0.35643 -2.51301,1.0692 -0.686792,0.71282 -1.030184,1.58952 -1.030178,2.63008 -6e-6,0.79086 0.226321,1.45944 0.678981,2.00572 0.452647,0.54633 1.313729,1.18368 2.583249,1.91208 l 1.560876,0.90531 c 2.278865,1.31114 3.839739,2.4766 4.682626,3.49636 0.832451,1.03018 1.248684,2.28409 1.248701,3.76171 -1.7e-5,2.11239 -0.788258,3.79813 -2.364727,5.05723 -1.576497,1.25911 -3.696684,1.88866 -6.360568,1.88866 -1.883462,0 -4.047874,-0.28616 -6.493242,-0.85848 z"
         style="font-weight:bold;fill:#efefe3;font-family:Lucida Bright;-inkscape-font-specification:Lucida Bright"
         id="path3016" />
      <path
         d="m 101.80476,704.41686 -3.761712,0 c -0.967747,2e-5 -1.589496,0.13269 -1.865247,0.39802 -0.275757,0.26537 -0.418837,1.07963 -0.42924,2.44277 l -0.01561,0.43705 -2.310096,0 0,-4.8075 21.571304,0 0,4.8075 -2.3101,0 -0.0156,-0.43705 c -0.0104,-1.36314 -0.1535,-2.1774 -0.42924,-2.44277 -0.27577,-0.26533 -0.89752,-0.398 -1.86525,-0.39802 l -3.76171,0 0,17.04476 c 0.0728,1.55047 0.1925,2.42456 0.35901,2.62227 0.16648,0.19771 0.91569,0.3434 2.24766,0.43705 l 0.28095,0.0156 0,1.45162 -10.582732,0 0,-1.45162 0.280958,-0.0156 c 1.269504,-0.0833 2.021324,-0.26275 2.255464,-0.53851 0.23412,-0.27575 0.35119,-1.11602 0.3512,-2.52081 z"
         style="font-weight:bold;fill:#efefe3;font-family:Lucida Bright;-inkscape-font-specification:Lucida Bright"
         id="path3018" />
      <path
         d="m 133.94319,725.98816 -17.62229,0 0,-1.45162 0.29657,-0.0156 c 1.05099,-0.0728 1.68054,-0.25234 1.88866,-0.53851 0.20811,-0.28615 0.31217,-1.12642 0.31217,-2.52081 l 0,-14.06349 c 0,-1.39436 -0.10146,-2.23203 -0.30437,-2.51301 -0.20291,-0.28093 -0.83507,-0.46304 -1.89646,-0.54631 l -0.29657,-0.0156 0,-1.43601 16.95111,0 0,4.13632 -2.31009,0 -0.0312,-0.29657 c -0.0312,-0.53067 -0.0468,-0.84285 -0.0468,-0.93652 -1e-5,-0.58271 -0.13789,-0.95732 -0.41363,-1.12383 -0.27577,-0.16647 -0.89752,-0.24972 -1.86525,-0.24974 l -4.96358,0 0,8.77212 3.2154,0 c 1.23829,10e-6 1.94848,-0.0312 2.1306,-0.0937 0.18209,-0.0624 0.28354,-0.5463 0.30437,-1.45162 l 0.0312,-0.29656 1.63892,0 0,5.01041 -1.63892,0 -0.0312,-0.28096 c -0.0208,-0.82205 -0.16651,-1.28511 -0.43705,-1.38918 -0.27056,-0.10405 -0.93133,-0.15608 -1.98231,-0.15609 l -3.32466,0 0,6.93029 c -1e-5,1.72737 0.2029,2.64829 0.60874,2.76275 0.30176,0.0833 1.12902,0.12487 2.48179,0.12487 l 1.93549,0 c 1.56086,0 2.43755,-0.0754 2.63007,-0.22633 0.19249,-0.15088 0.33037,-0.87669 0.41363,-2.17742 l 0.0156,-0.29656 2.3101,0 z"
         style="font-weight:bold;fill:#efefe3;font-family:Lucida Bright;-inkscape-font-specification:Lucida Bright"
         id="path3020" />
      <path
         d="m 142.66848,716.52925 0,4.93237 c 0,1.4152 0.11446,2.25807 0.3434,2.52862 0.22892,0.27055 0.98334,0.44745 2.26327,0.5307 l 0.29656,0.0156 0,1.45162 -10.02082,0 0,-1.45162 0.29657,-0.0156 c 1.05099,-0.0728 1.68054,-0.25234 1.88866,-0.53851 0.20811,-0.28615 0.31217,-1.12642 0.31217,-2.52081 l 0,-14.06349 c 0,-1.39436 -0.10146,-2.23203 -0.30437,-2.51301 -0.20291,-0.28093 -0.83507,-0.46304 -1.89646,-0.54631 l -0.29657,-0.0156 0,-1.43601 7.11759,0 2.98128,-0.078 1.31113,-0.0312 c 4.54734,2e-5 6.82101,2.03956 6.82103,6.11863 -2e-5,2.53904 -0.80647,4.44591 -2.41936,5.72061 -1.61292,1.27473 -4.03227,1.91208 -7.25807,1.91207 z m 0,-1.54526 0.92092,0 c 1.76898,1e-5 3.09573,-0.47866 3.98023,-1.43601 0.88449,-0.95732 1.32673,-2.38812 1.32675,-4.29241 -2e-5,-3.22579 -1.51406,-4.83869 -4.54215,-4.83871 l -1.68575,0 z"
         style="font-weight:bold;fill:#efefe3;font-family:Lucida Bright;-inkscape-font-specification:Lucida Bright"
         id="path3022" />
      <path
         d="m 162.53843,714.6562 0,6.80542 c -1e-5,1.39439 0.10405,2.23466 0.31217,2.52081 0.20811,0.28617 0.84287,0.46567 1.90427,0.53851 l 0.28096,0.0156 0,1.45162 -9.81791,0 0,-1.45162 0.29657,-0.0156 c 1.05099,-0.0728 1.68054,-0.25234 1.88866,-0.53851 0.20811,-0.28615 0.31217,-1.12642 0.31217,-2.52081 l 0,-14.06349 c 0,-1.39436 -0.10146,-2.23203 -0.30437,-2.51301 -0.20291,-0.28093 -0.83507,-0.46304 -1.89646,-0.54631 l -0.29657,-0.0156 0,-1.43601 9.81791,0 0,1.43601 -0.28096,0.0156 c -1.07181,0.0833 -1.70917,0.26538 -1.91207,0.54631 -0.20292,0.28098 -0.30438,1.11865 -0.30437,2.51301 l 0,5.61915 9.53695,0 0,-5.61915 c -2e-5,-1.39436 -0.10148,-2.23203 -0.30437,-2.51301 -0.20293,-0.28093 -0.83509,-0.46304 -1.89647,-0.54631 l -0.29656,-0.0156 0,-1.43601 9.8179,0 0,1.43601 -0.28095,0.0156 c -1.07183,0.0833 -1.70918,0.26538 -1.91208,0.54631 -0.20293,0.28098 -0.30439,1.11865 -0.30437,2.51301 l 0,14.06349 c -2e-5,1.39439 0.10404,2.23466 0.31218,2.52081 0.20809,0.28617 0.84285,0.46567 1.90427,0.53851 l 0.28095,0.0156 0,1.45162 -9.8179,0 0,-1.45162 0.29656,-0.0156 c 1.05098,-0.0728 1.68053,-0.25234 1.88866,-0.53851 0.2081,-0.28615 0.31216,-1.12642 0.31218,-2.52081 l 0,-6.80542 z"
         style="font-weight:bold;fill:#efefe3;font-family:Lucida Bright;-inkscape-font-specification:Lucida Bright"
         id="path3024" />
      <path
         d="m 198.37613,725.98816 -17.62228,0 0,-1.45162 0.29656,-0.0156 c 1.05099,-0.0728 1.68055,-0.25234 1.88866,-0.53851 0.20812,-0.28615 0.31218,-1.12642 0.31218,-2.52081 l 0,-14.06349 c 0,-1.39436 -0.10146,-2.23203 -0.30437,-2.51301 -0.20292,-0.28093 -0.83507,-0.46304 -1.89647,-0.54631 l -0.29656,-0.0156 0,-1.43601 16.95111,0 0,4.13632 -2.3101,0 -0.0312,-0.29657 c -0.0312,-0.53067 -0.0468,-0.84285 -0.0468,-0.93652 -2e-5,-0.58271 -0.13789,-0.95732 -0.41363,-1.12383 -0.27577,-0.16647 -0.89752,-0.24972 -1.86525,-0.24974 l -4.96358,0 0,8.77212 3.2154,0 c 1.23828,10e-6 1.94848,-0.0312 2.13059,-0.0937 0.18209,-0.0624 0.28355,-0.5463 0.30437,-1.45162 l 0.0312,-0.29656 1.63892,0 0,5.01041 -1.63892,0 -0.0312,-0.28096 c -0.0208,-0.82205 -0.1665,-1.28511 -0.43704,-1.38918 -0.27057,-0.10405 -0.93134,-0.15608 -1.98231,-0.15609 l -3.32467,0 0,6.93029 c -1e-5,1.72737 0.20291,2.64829 0.60874,2.76275 0.30176,0.0833 1.12903,0.12487 2.4818,0.12487 l 1.93548,0 c 1.56086,0 2.43755,-0.0754 2.63008,-0.22633 0.19249,-0.15088 0.33037,-0.87669 0.41363,-2.17742 l 0.0156,-0.29656 2.31009,0 z"
         style="font-weight:bold;fill:#efefe3;font-family:Lucida Bright;-inkscape-font-specification:Lucida Bright"
         id="path3026" />
      <path
         d="m 217.63734,726.31594 -12.84601,-17.49741 0,12.64309 c 0,1.39439 0.10406,2.23466 0.31218,2.52081 0.20811,0.28617 0.84286,0.46567 1.90427,0.53851 l 0.28095,0.0156 0,1.45162 -7.28928,0 0,-1.45162 0.29656,-0.0156 c 1.05099,-0.0728 1.68054,-0.25234 1.88866,-0.53851 0.20811,-0.28615 0.31217,-1.12642 0.31218,-2.52081 l 0,-14.06349 c -1e-5,-1.39436 -0.10146,-2.23203 -0.30437,-2.51301 -0.20292,-0.28093 -0.83507,-0.46304 -1.89647,-0.54631 l -0.29656,-0.0156 0,-1.43601 5.80645,0 12.75236,17.45059 0,-12.93966 c -2e-5,-1.39436 -0.10148,-2.23203 -0.30437,-2.51301 -0.20294,-0.28093 -0.84029,-0.46304 -1.91208,-0.54631 l -0.29656,-0.0156 0,-1.43601 7.27368,0 0,1.43601 -0.28096,0.0156 c -1.05101,0.0833 -1.68057,0.26538 -1.88866,0.54631 -0.20814,0.28098 -0.3122,1.11865 -0.31218,2.51301 l 0,18.91781 z"
         style="font-weight:bold;fill:#efefe3;font-family:Lucida Bright;-inkscape-font-specification:Lucida Bright"
         id="path3028" />
      <path
         d="m 226.03485,725.7072 0,-4.8231 2.3101,0 0.0156,0.37461 c 0.0728,1.36316 0.33818,2.23205 0.79604,2.60666 0.94693,0.77003 2.07076,1.15505 3.37149,1.15505 1.22788,0 2.22424,-0.37982 2.98908,-1.13944 0.76482,-0.75963 1.14723,-1.75338 1.14724,-2.98128 -1e-5,-0.96773 -0.22373,-1.74817 -0.67117,-2.34131 -0.44746,-0.58272 -1.31115,-1.22788 -2.59106,-1.93548 l -1.54526,-0.84288 c -3.86057,-2.13318 -5.79085,-4.45368 -5.79085,-6.9615 0,-1.96669 0.69719,-3.54577 2.09157,-4.73726 1.39438,-1.19144 3.24662,-1.78718 5.55672,-1.7872 1.8106,2e-5 3.88136,0.34341 6.21228,1.03018 l 0,4.6514 -2.3257,0 -0.0156,-0.28095 c -0.0833,-1.4568 -0.29658,-2.36211 -0.63996,-2.71593 -0.77004,-0.7596 -1.73778,-1.13941 -2.90323,-1.13944 -0.98856,3e-5 -1.82623,0.35643 -2.51301,1.0692 -0.68679,0.71282 -1.03018,1.58952 -1.03017,2.63008 -1e-5,0.79086 0.22632,1.45944 0.67898,2.00572 0.45264,0.54633 1.31373,1.18368 2.58325,1.91208 l 1.56087,0.90531 c 2.27887,1.31114 3.83974,2.4766 4.68263,3.49636 0.83245,1.03018 1.24868,2.28409 1.2487,3.76171 -2e-5,2.11239 -0.78826,3.79813 -2.36473,5.05723 -1.57649,1.25911 -3.69668,1.88866 -6.36057,1.88866 -1.88346,0 -4.04787,-0.28616 -6.49324,-0.85848 z"
         style="font-weight:bold;fill:#efefe3;font-family:Lucida Bright;-inkscape-font-specification:Lucida Bright"
         id="path3030" />
    </g>
    <text
       xml:space="preserve"
       style="font-size:49.25072861px;font-style:normal;font-variant:normal;font-weight:normal;font-stretch:normal;line-height:125%;letter-spacing:0px;word-spacing:0px;fill:#efefe3;fill-opacity:1;stroke:none;font-family:Lucida Bright;-inkscape-font-specification:Lucida Bright"
       x="70.63475"
       y="795.65295"
       id="text6620"
       sodipodi:linespacing="125%"
       transform="scale(0.8116217,1.2321011)"><tspan
         sodipodi:role="line"
         id="tspan6622"
         x="70.63475"
         y="795.65295"
         style="font-size:12.31268215px;font-weight:bold;fill:#efefe3;fill-opacity:1">STUDENT</tspan></text>
    <text
       xml:space="preserve"
       style="font-size:40.12916946px;font-style:normal;font-variant:normal;font-weight:normal;font-stretch:normal;line-height:125%;letter-spacing:0px;word-spacing:0px;fill:#efefe3;fill-opacity:1;stroke:none;font-family:Lucida Bright;-inkscape-font-specification:Lucida Bright"
       x="156.56036"
       y="777.4447"
       id="text6624"
       sodipodi:linespacing="125%"
       transform="scale(0.79304802,1.2609577)"><tspan
         sodipodi:role="line"
         id="tspan6626"
         x="156.56036"
         y="777.4447"
         style="font-size:12.03874874px;font-weight:bold;fill:#efefe3;fill-opacity:1">DEVELOPER</tspan></text>
    <g
       transform="scale(0.95850315,1.0432934)"
       style="font-size:25.23541260000000000px;font-style:normal;font-variant:normal;font-weight:normal;font-stretch:normal;line-height:125%;letter-spacing:0px;word-spacing:0px;fill:#efefe3;fill-opacity:1;stroke:none;font-family:Lucida Sans Typewriter;-inkscape-font-specification:Lucida Sans Typewriter"
       id="text6628">
      <path
         d="m 120.68353,938.02048 c -1.5633,1.2579 -3.09751,1.88685 -4.60262,1.88685 -1.25791,0 -2.30677,-0.41082 -3.14658,-1.23245 -0.83981,-0.82164 -1.25972,-1.8505 -1.25972,-3.08659 0,-2.33403 1.71235,-4.19543 5.13705,-5.58422 -0.39265,-1.09793 -0.58897,-1.95956 -0.58896,-2.58488 -1e-5,-1.14156 0.48534,-2.17224 1.45604,-3.09205 0.97068,-0.91978 2.06317,-1.37968 3.27746,-1.37969 0.85798,10e-6 1.55237,0.24723 2.08317,0.74165 0.53078,0.49445 0.79617,1.14158 0.79619,1.94139 -2e-5,1.99957 -1.61057,3.50469 -4.83166,4.51536 0.93069,2.49401 1.96683,4.51537 3.1084,6.06412 1.12701,-1.17792 1.78505,-2.50126 1.97411,-3.97003 l -2.24677,0 1.03613,-1.61419 2.89027,0 c 1.43239,10e-6 2.5376,-0.2363 3.31563,-0.70894 l -0.85072,1.34153 c -0.85801,0.6544 -1.66874,0.9816 -2.43219,0.9816 l -0.34901,0 c -0.56717,1.74507 -1.5524,3.25019 -2.95571,4.51536 1.03248,1.29426 1.8832,1.94139 2.55216,1.94139 0.56713,0 1.32696,-0.31629 2.2795,-0.94888 0.08,-0.0509 0.1963,-0.12724 0.34901,-0.22904 l -0.1636,0.80709 c -1.27973,1.05432 -2.4831,1.58147 -3.61011,1.58147 -0.65442,0 -1.18521,-0.11997 -1.59238,-0.35992 -0.40719,-0.23995 -0.94889,-0.74892 -1.62509,-1.52693 z m -1.88686,-8.51812 c 2.16679,-0.85071 3.25018,-2.17042 3.25019,-3.95912 -10e-6,-1.2797 -0.52716,-1.91956 -1.58146,-1.91958 -0.66169,2e-5 -1.19793,0.27087 -1.60874,0.81255 -0.41083,0.54171 -0.61624,1.25246 -0.61623,2.13225 -1e-5,0.79984 0.18541,1.7778 0.55624,2.9339 z m 1.52694,7.96188 c -1.30154,-1.9123 -2.41402,-4.1918 -3.33744,-6.83849 -2.02138,0.91617 -3.03207,2.35585 -3.03206,4.31904 -1e-5,1.03978 0.31447,1.90322 0.94343,2.59034 0.62894,0.68712 1.42331,1.03068 2.38311,1.03068 0.85798,0 1.8723,-0.36719 3.04296,-1.10157 z"
         style="font-size:22.33687592000000100px;font-family:Lucida Calligraphy;-inkscape-font-specification:Lucida Calligraphy;fill:#efefe3;fill-opacity:1"
         id="path3070" />
    </g>
    <path
       style="fill:none;stroke:#efefe3;stroke-width:1.15129888px;stroke-linecap:butt;stroke-linejoin:miter;stroke-opacity:1"
       d="m 57.843869,965.80671 51.777481,0"
       id="path7170"
       inkscape:connector-curvature="0" />
    <path
       style="fill:none;stroke:#efefe3;stroke-width:1.26067448px;stroke-linecap:butt;stroke-linejoin:miter;stroke-opacity:1"
       d="m 120.71198,965.75171 62.0827,0"
       id="path7170-7"
       inkscape:connector-curvature="0" />
  </g>
</svg>
